<mxfile host="app.diagrams.net" modified="2022-01-12T16:48:11.348Z" agent="5.0 (Macintosh; Intel Mac OS X 10_15_6) AppleWebKit/537.36 (KHTML, like Gecko) Chrome/96.0.4664.110 Safari/537.36" etag="sDGxHlM-X3pguaMsKDBN" version="16.1.2" type="github">
  <diagram id="Ags1phsDS0aTwdxZoQtE" name="Page-1">
    <mxGraphModel dx="2809" dy="803" grid="1" gridSize="10" guides="1" tooltips="1" connect="1" arrows="1" fold="1" page="1" pageScale="1" pageWidth="1600" pageHeight="1200" math="0" shadow="0">
      <root>
        <mxCell id="0" />
        <mxCell id="1" parent="0" />
        <mxCell id="dHmSMfp0UCBvBHTw-1_v-15" value="" style="rounded=0;whiteSpace=wrap;html=1;dashed=1;fillColor=none;" parent="1" vertex="1">
          <mxGeometry x="700" y="1680" width="190" height="60" as="geometry" />
        </mxCell>
        <mxCell id="g-lCjl9Iwci3eXvBsUKC-38" style="edgeStyle=orthogonalEdgeStyle;rounded=0;orthogonalLoop=1;jettySize=auto;html=1;entryX=0.5;entryY=0;entryDx=0;entryDy=0;entryPerimeter=0;fontSize=20;" parent="1" source="g-lCjl9Iwci3eXvBsUKC-19" target="wnBwBd8DrcGJJynO4ClW-28" edge="1">
          <mxGeometry relative="1" as="geometry">
            <Array as="points">
              <mxPoint x="-21" y="460" />
              <mxPoint x="312" y="460" />
            </Array>
          </mxGeometry>
        </mxCell>
        <mxCell id="g-lCjl9Iwci3eXvBsUKC-41" style="edgeStyle=orthogonalEdgeStyle;rounded=0;orthogonalLoop=1;jettySize=auto;html=1;entryX=0.5;entryY=0;entryDx=0;entryDy=0;entryPerimeter=0;fontSize=20;" parent="1" source="g-lCjl9Iwci3eXvBsUKC-22" target="g-lCjl9Iwci3eXvBsUKC-33" edge="1">
          <mxGeometry relative="1" as="geometry">
            <Array as="points">
              <mxPoint x="-21" y="800" />
              <mxPoint x="312" y="800" />
            </Array>
          </mxGeometry>
        </mxCell>
        <mxCell id="g-lCjl9Iwci3eXvBsUKC-12" style="edgeStyle=orthogonalEdgeStyle;rounded=0;orthogonalLoop=1;jettySize=auto;html=1;fontSize=20;" parent="1" source="wnBwBd8DrcGJJynO4ClW-24" target="wnBwBd8DrcGJJynO4ClW-36" edge="1">
          <mxGeometry relative="1" as="geometry" />
        </mxCell>
        <mxCell id="g-lCjl9Iwci3eXvBsUKC-6" style="edgeStyle=orthogonalEdgeStyle;rounded=0;orthogonalLoop=1;jettySize=auto;html=1;fontSize=20;" parent="1" source="wnBwBd8DrcGJJynO4ClW-24" target="wnBwBd8DrcGJJynO4ClW-34" edge="1">
          <mxGeometry relative="1" as="geometry" />
        </mxCell>
        <mxCell id="wnBwBd8DrcGJJynO4ClW-9" value="Auto Scaling" style="group" parent="1" vertex="1" connectable="0">
          <mxGeometry x="580" y="90" width="300" height="240" as="geometry" />
        </mxCell>
        <mxCell id="wnBwBd8DrcGJJynO4ClW-8" value="" style="rounded=0;whiteSpace=wrap;html=1;strokeColor=#FF8000;fillColor=none;" parent="wnBwBd8DrcGJJynO4ClW-9" vertex="1">
          <mxGeometry width="251.75" height="220" as="geometry" />
        </mxCell>
        <mxCell id="wnBwBd8DrcGJJynO4ClW-5" value="" style="sketch=0;points=[[0,0,0],[0.25,0,0],[0.5,0,0],[0.75,0,0],[1,0,0],[0,1,0],[0.25,1,0],[0.5,1,0],[0.75,1,0],[1,1,0],[0,0.25,0],[0,0.5,0],[0,0.75,0],[1,0.25,0],[1,0.5,0],[1,0.75,0]];outlineConnect=0;fontColor=#232F3E;gradientColor=#F78E04;gradientDirection=north;fillColor=#D05C17;strokeColor=#ffffff;dashed=0;verticalLabelPosition=bottom;verticalAlign=top;align=center;html=1;fontSize=12;fontStyle=0;aspect=fixed;shape=mxgraph.aws4.resourceIcon;resIcon=mxgraph.aws4.auto_scaling2;" parent="wnBwBd8DrcGJJynO4ClW-9" vertex="1">
          <mxGeometry width="50" height="50" as="geometry" />
        </mxCell>
        <mxCell id="wnBwBd8DrcGJJynO4ClW-11" value="Elastic Beanstalk container" style="points=[[0,0],[0.25,0],[0.5,0],[0.75,0],[1,0],[1,0.25],[1,0.5],[1,0.75],[1,1],[0.75,1],[0.5,1],[0.25,1],[0,1],[0,0.75],[0,0.5],[0,0.25]];outlineConnect=0;gradientColor=none;html=1;whiteSpace=wrap;fontSize=12;fontStyle=0;shape=mxgraph.aws4.group;grIcon=mxgraph.aws4.group_elastic_beanstalk;strokeColor=#D86613;fillColor=none;verticalAlign=top;align=left;spacingLeft=30;fontColor=#D86613;dashed=0;" parent="wnBwBd8DrcGJJynO4ClW-9" vertex="1">
          <mxGeometry x="-40" y="-30" width="340" height="270" as="geometry" />
        </mxCell>
        <mxCell id="wnBwBd8DrcGJJynO4ClW-10" value="&lt;span&gt;SDK Auth Server&lt;/span&gt;" style="text;html=1;strokeColor=none;fillColor=none;align=center;verticalAlign=middle;whiteSpace=wrap;rounded=0;" parent="wnBwBd8DrcGJJynO4ClW-9" vertex="1">
          <mxGeometry x="70.88000000000011" y="190" width="110" height="20" as="geometry" />
        </mxCell>
        <mxCell id="wnBwBd8DrcGJJynO4ClW-4" value="ec2" style="outlineConnect=0;dashed=0;verticalLabelPosition=bottom;verticalAlign=top;align=center;html=1;shape=mxgraph.aws3.ec2;fillColor=#F58534;gradientColor=none;" parent="1" vertex="1">
          <mxGeometry x="610" y="150" width="76.5" height="93" as="geometry" />
        </mxCell>
        <mxCell id="wnBwBd8DrcGJJynO4ClW-7" value="ec2" style="outlineConnect=0;dashed=0;verticalLabelPosition=bottom;verticalAlign=top;align=center;html=1;shape=mxgraph.aws3.ec2;fillColor=#F58534;gradientColor=none;" parent="1" vertex="1">
          <mxGeometry x="720" y="150" width="76.5" height="93" as="geometry" />
        </mxCell>
        <mxCell id="g-lCjl9Iwci3eXvBsUKC-24" value="&lt;span style=&quot;font-size: 11px&quot;&gt;admin.seeso.io&lt;/span&gt;" style="edgeStyle=orthogonalEdgeStyle;rounded=0;orthogonalLoop=1;jettySize=auto;html=1;entryX=0;entryY=0.5;entryDx=0;entryDy=0;entryPerimeter=0;fontSize=20;" parent="1" source="wnBwBd8DrcGJJynO4ClW-13" target="g-lCjl9Iwci3eXvBsUKC-19" edge="1">
          <mxGeometry x="0.5995" y="17" relative="1" as="geometry">
            <Array as="points">
              <mxPoint x="-200" y="529" />
              <mxPoint x="-200" y="367" />
            </Array>
            <mxPoint as="offset" />
          </mxGeometry>
        </mxCell>
        <mxCell id="g-lCjl9Iwci3eXvBsUKC-26" value="&lt;font size=&quot;1&quot;&gt;manage.seeso.io&lt;/font&gt;" style="edgeStyle=orthogonalEdgeStyle;rounded=0;orthogonalLoop=1;jettySize=auto;html=1;fontSize=20;" parent="1" source="wnBwBd8DrcGJJynO4ClW-13" target="g-lCjl9Iwci3eXvBsUKC-44" edge="1">
          <mxGeometry x="0.6255" y="31" relative="1" as="geometry">
            <Array as="points">
              <mxPoint x="-200" y="530" />
              <mxPoint x="-200" y="711" />
              <mxPoint x="-126" y="711" />
            </Array>
            <mxPoint x="1" as="offset" />
          </mxGeometry>
        </mxCell>
        <mxCell id="g-lCjl9Iwci3eXvBsUKC-34" style="edgeStyle=orthogonalEdgeStyle;rounded=0;orthogonalLoop=1;jettySize=auto;html=1;fontSize=20;" parent="1" source="wnBwBd8DrcGJJynO4ClW-13" target="wnBwBd8DrcGJJynO4ClW-28" edge="1">
          <mxGeometry relative="1" as="geometry" />
        </mxCell>
        <mxCell id="g-lCjl9Iwci3eXvBsUKC-35" style="edgeStyle=orthogonalEdgeStyle;rounded=0;orthogonalLoop=1;jettySize=auto;html=1;entryX=0;entryY=0.5;entryDx=0;entryDy=0;entryPerimeter=0;fontSize=20;" parent="1" source="wnBwBd8DrcGJJynO4ClW-13" target="g-lCjl9Iwci3eXvBsUKC-30" edge="1">
          <mxGeometry relative="1" as="geometry">
            <Array as="points">
              <mxPoint x="200" y="529" />
              <mxPoint x="200" y="197" />
            </Array>
          </mxGeometry>
        </mxCell>
        <mxCell id="g-lCjl9Iwci3eXvBsUKC-36" style="edgeStyle=orthogonalEdgeStyle;rounded=0;orthogonalLoop=1;jettySize=auto;html=1;entryX=0;entryY=0.5;entryDx=0;entryDy=0;entryPerimeter=0;fontSize=20;" parent="1" source="wnBwBd8DrcGJJynO4ClW-13" target="g-lCjl9Iwci3eXvBsUKC-33" edge="1">
          <mxGeometry relative="1" as="geometry">
            <Array as="points">
              <mxPoint x="200" y="529" />
              <mxPoint x="200" y="874" />
            </Array>
          </mxGeometry>
        </mxCell>
        <mxCell id="g-lCjl9Iwci3eXvBsUKC-42" style="edgeStyle=orthogonalEdgeStyle;rounded=0;orthogonalLoop=1;jettySize=auto;html=1;entryX=0;entryY=0.5;entryDx=0;entryDy=0;entryPerimeter=0;fontSize=20;" parent="1" source="wnBwBd8DrcGJJynO4ClW-13" target="wnBwBd8DrcGJJynO4ClW-42" edge="1">
          <mxGeometry relative="1" as="geometry">
            <Array as="points">
              <mxPoint x="-291" y="1117" />
            </Array>
          </mxGeometry>
        </mxCell>
        <mxCell id="wnBwBd8DrcGJJynO4ClW-13" value="Route53" style="sketch=0;points=[[0,0,0],[0.25,0,0],[0.5,0,0],[0.75,0,0],[1,0,0],[0,1,0],[0.25,1,0],[0.5,1,0],[0.75,1,0],[1,1,0],[0,0.25,0],[0,0.5,0],[0,0.75,0],[1,0.25,0],[1,0.5,0],[1,0.75,0]];outlineConnect=0;fontColor=#232F3E;gradientColor=#945DF2;gradientDirection=north;fillColor=#5A30B5;strokeColor=#ffffff;dashed=0;verticalLabelPosition=bottom;verticalAlign=top;align=center;html=1;fontSize=12;fontStyle=0;aspect=fixed;shape=mxgraph.aws4.resourceIcon;resIcon=mxgraph.aws4.route_53;" parent="1" vertex="1">
          <mxGeometry x="-330" y="490.5" width="78" height="78" as="geometry" />
        </mxCell>
        <mxCell id="wnBwBd8DrcGJJynO4ClW-14" value="Auto Scaling" style="group" parent="1" vertex="1" connectable="0">
          <mxGeometry x="580" y="424" width="300" height="240" as="geometry" />
        </mxCell>
        <mxCell id="wnBwBd8DrcGJJynO4ClW-15" value="" style="rounded=0;whiteSpace=wrap;html=1;strokeColor=#FF8000;fillColor=none;" parent="wnBwBd8DrcGJJynO4ClW-14" vertex="1">
          <mxGeometry width="251.75" height="220" as="geometry" />
        </mxCell>
        <mxCell id="wnBwBd8DrcGJJynO4ClW-16" value="" style="sketch=0;points=[[0,0,0],[0.25,0,0],[0.5,0,0],[0.75,0,0],[1,0,0],[0,1,0],[0.25,1,0],[0.5,1,0],[0.75,1,0],[1,1,0],[0,0.25,0],[0,0.5,0],[0,0.75,0],[1,0.25,0],[1,0.5,0],[1,0.75,0]];outlineConnect=0;fontColor=#232F3E;gradientColor=#F78E04;gradientDirection=north;fillColor=#D05C17;strokeColor=#ffffff;dashed=0;verticalLabelPosition=bottom;verticalAlign=top;align=center;html=1;fontSize=12;fontStyle=0;aspect=fixed;shape=mxgraph.aws4.resourceIcon;resIcon=mxgraph.aws4.auto_scaling2;" parent="wnBwBd8DrcGJJynO4ClW-14" vertex="1">
          <mxGeometry width="50" height="50" as="geometry" />
        </mxCell>
        <mxCell id="wnBwBd8DrcGJJynO4ClW-17" value="Elastic Beanstalk container" style="points=[[0,0],[0.25,0],[0.5,0],[0.75,0],[1,0],[1,0.25],[1,0.5],[1,0.75],[1,1],[0.75,1],[0.5,1],[0.25,1],[0,1],[0,0.75],[0,0.5],[0,0.25]];outlineConnect=0;gradientColor=none;html=1;whiteSpace=wrap;fontSize=12;fontStyle=0;shape=mxgraph.aws4.group;grIcon=mxgraph.aws4.group_elastic_beanstalk;strokeColor=#D86613;fillColor=none;verticalAlign=top;align=left;spacingLeft=30;fontColor=#D86613;dashed=0;" parent="wnBwBd8DrcGJJynO4ClW-14" vertex="1">
          <mxGeometry x="-40" y="-30" width="340" height="270" as="geometry" />
        </mxCell>
        <mxCell id="wnBwBd8DrcGJJynO4ClW-18" value="&lt;span&gt;Admin Server&lt;/span&gt;" style="text;html=1;strokeColor=none;fillColor=none;align=center;verticalAlign=middle;whiteSpace=wrap;rounded=0;" parent="wnBwBd8DrcGJJynO4ClW-14" vertex="1">
          <mxGeometry x="70.88000000000011" y="190" width="110" height="20" as="geometry" />
        </mxCell>
        <mxCell id="wnBwBd8DrcGJJynO4ClW-19" value="ec2" style="outlineConnect=0;dashed=0;verticalLabelPosition=bottom;verticalAlign=top;align=center;html=1;shape=mxgraph.aws3.ec2;fillColor=#F58534;gradientColor=none;" parent="1" vertex="1">
          <mxGeometry x="610" y="484" width="76.5" height="93" as="geometry" />
        </mxCell>
        <mxCell id="wnBwBd8DrcGJJynO4ClW-20" value="ec2" style="outlineConnect=0;dashed=0;verticalLabelPosition=bottom;verticalAlign=top;align=center;html=1;shape=mxgraph.aws3.ec2;fillColor=#F58534;gradientColor=none;" parent="1" vertex="1">
          <mxGeometry x="720" y="484" width="76.5" height="93" as="geometry" />
        </mxCell>
        <mxCell id="wnBwBd8DrcGJJynO4ClW-21" value="Auto Scaling" style="group" parent="1" vertex="1" connectable="0">
          <mxGeometry x="580" y="770" width="300" height="240" as="geometry" />
        </mxCell>
        <mxCell id="wnBwBd8DrcGJJynO4ClW-22" value="" style="rounded=0;whiteSpace=wrap;html=1;strokeColor=#FF8000;fillColor=none;" parent="wnBwBd8DrcGJJynO4ClW-21" vertex="1">
          <mxGeometry width="251.75" height="220" as="geometry" />
        </mxCell>
        <mxCell id="wnBwBd8DrcGJJynO4ClW-23" value="" style="sketch=0;points=[[0,0,0],[0.25,0,0],[0.5,0,0],[0.75,0,0],[1,0,0],[0,1,0],[0.25,1,0],[0.5,1,0],[0.75,1,0],[1,1,0],[0,0.25,0],[0,0.5,0],[0,0.75,0],[1,0.25,0],[1,0.5,0],[1,0.75,0]];outlineConnect=0;fontColor=#232F3E;gradientColor=#F78E04;gradientDirection=north;fillColor=#D05C17;strokeColor=#ffffff;dashed=0;verticalLabelPosition=bottom;verticalAlign=top;align=center;html=1;fontSize=12;fontStyle=0;aspect=fixed;shape=mxgraph.aws4.resourceIcon;resIcon=mxgraph.aws4.auto_scaling2;" parent="wnBwBd8DrcGJJynO4ClW-21" vertex="1">
          <mxGeometry width="50" height="50" as="geometry" />
        </mxCell>
        <mxCell id="wnBwBd8DrcGJJynO4ClW-24" value="Elastic Beanstalk container" style="points=[[0,0],[0.25,0],[0.5,0],[0.75,0],[1,0],[1,0.25],[1,0.5],[1,0.75],[1,1],[0.75,1],[0.5,1],[0.25,1],[0,1],[0,0.75],[0,0.5],[0,0.25]];outlineConnect=0;gradientColor=none;html=1;whiteSpace=wrap;fontSize=12;fontStyle=0;shape=mxgraph.aws4.group;grIcon=mxgraph.aws4.group_elastic_beanstalk;strokeColor=#D86613;fillColor=none;verticalAlign=top;align=left;spacingLeft=30;fontColor=#D86613;dashed=0;" parent="wnBwBd8DrcGJJynO4ClW-21" vertex="1">
          <mxGeometry x="-40" y="-30" width="340" height="270" as="geometry" />
        </mxCell>
        <mxCell id="wnBwBd8DrcGJJynO4ClW-25" value="&lt;span&gt;User Server&lt;/span&gt;" style="text;html=1;strokeColor=none;fillColor=none;align=center;verticalAlign=middle;whiteSpace=wrap;rounded=0;" parent="wnBwBd8DrcGJJynO4ClW-21" vertex="1">
          <mxGeometry x="70.88000000000011" y="190" width="110" height="20" as="geometry" />
        </mxCell>
        <mxCell id="wnBwBd8DrcGJJynO4ClW-26" value="ec2" style="outlineConnect=0;dashed=0;verticalLabelPosition=bottom;verticalAlign=top;align=center;html=1;shape=mxgraph.aws3.ec2;fillColor=#F58534;gradientColor=none;" parent="1" vertex="1">
          <mxGeometry x="610" y="830" width="76.5" height="93" as="geometry" />
        </mxCell>
        <mxCell id="wnBwBd8DrcGJJynO4ClW-27" value="ec2" style="outlineConnect=0;dashed=0;verticalLabelPosition=bottom;verticalAlign=top;align=center;html=1;shape=mxgraph.aws3.ec2;fillColor=#F58534;gradientColor=none;" parent="1" vertex="1">
          <mxGeometry x="720" y="830" width="76.5" height="93" as="geometry" />
        </mxCell>
        <mxCell id="wnBwBd8DrcGJJynO4ClW-30" value="console.seeso.io" style="edgeStyle=orthogonalEdgeStyle;rounded=0;orthogonalLoop=1;jettySize=auto;html=1;entryX=0;entryY=0.5;entryDx=0;entryDy=0;startArrow=none;" parent="1" source="g-lCjl9Iwci3eXvBsUKC-30" target="wnBwBd8DrcGJJynO4ClW-11" edge="1">
          <mxGeometry x="0.7695" relative="1" as="geometry">
            <mxPoint as="offset" />
            <Array as="points">
              <mxPoint x="340" y="195" />
            </Array>
          </mxGeometry>
        </mxCell>
        <mxCell id="wnBwBd8DrcGJJynO4ClW-31" value="admin-api.seeso.io" style="edgeStyle=orthogonalEdgeStyle;rounded=0;orthogonalLoop=1;jettySize=auto;html=1;" parent="1" source="wnBwBd8DrcGJJynO4ClW-28" target="wnBwBd8DrcGJJynO4ClW-17" edge="1">
          <mxGeometry x="0.5237" y="-21" relative="1" as="geometry">
            <mxPoint as="offset" />
          </mxGeometry>
        </mxCell>
        <mxCell id="wnBwBd8DrcGJJynO4ClW-32" value="api-manage.seeso.io" style="edgeStyle=orthogonalEdgeStyle;rounded=0;orthogonalLoop=1;jettySize=auto;html=1;entryX=0;entryY=0.5;entryDx=0;entryDy=0;exitX=0.835;exitY=0.5;exitDx=0;exitDy=0;exitPerimeter=0;" parent="1" source="g-lCjl9Iwci3eXvBsUKC-33" target="wnBwBd8DrcGJJynO4ClW-24" edge="1">
          <mxGeometry x="0.774" relative="1" as="geometry">
            <mxPoint as="offset" />
            <mxPoint x="280" y="660" as="sourcePoint" />
            <Array as="points">
              <mxPoint x="337" y="875" />
            </Array>
          </mxGeometry>
        </mxCell>
        <mxCell id="wnBwBd8DrcGJJynO4ClW-28" value="LB" style="outlineConnect=0;dashed=0;verticalLabelPosition=bottom;verticalAlign=top;align=center;html=1;shape=mxgraph.aws3.elastic_load_balancing;fillColor=#F58534;gradientColor=none;strokeColor=#FF8000;" parent="1" vertex="1">
          <mxGeometry x="273.5" y="482.5" width="76.5" height="93" as="geometry" />
        </mxCell>
        <mxCell id="wnBwBd8DrcGJJynO4ClW-34" value="MongoDB" style="html=1;verticalLabelPosition=bottom;align=center;labelBackgroundColor=#ffffff;verticalAlign=top;strokeWidth=2;strokeColor=#0080F0;shadow=0;dashed=0;shape=mxgraph.ios7.icons.data;fillColor=none;" parent="1" vertex="1">
          <mxGeometry x="1140" y="521" width="70" height="79.1" as="geometry" />
        </mxCell>
        <mxCell id="wnBwBd8DrcGJJynO4ClW-35" value="RDS" style="outlineConnect=0;dashed=0;verticalLabelPosition=bottom;verticalAlign=top;align=center;html=1;shape=mxgraph.aws3.rds;fillColor=#2E73B8;gradientColor=none;strokeColor=#FF8000;" parent="1" vertex="1">
          <mxGeometry x="1000" y="519" width="72" height="81" as="geometry" />
        </mxCell>
        <mxCell id="wnBwBd8DrcGJJynO4ClW-36" value="Elasticache fro Redis" style="sketch=0;outlineConnect=0;fontColor=#232F3E;gradientColor=none;fillColor=#527FFF;strokeColor=none;dashed=0;verticalLabelPosition=bottom;verticalAlign=top;align=center;html=1;fontSize=12;fontStyle=0;aspect=fixed;pointerEvents=1;shape=mxgraph.aws4.elasticache_for_redis;" parent="1" vertex="1">
          <mxGeometry x="1260" y="531" width="78" height="69" as="geometry" />
        </mxCell>
        <mxCell id="wnBwBd8DrcGJJynO4ClW-40" style="edgeStyle=orthogonalEdgeStyle;rounded=0;orthogonalLoop=1;jettySize=auto;html=1;entryX=1;entryY=0.5;entryDx=0;entryDy=0;" parent="1" source="wnBwBd8DrcGJJynO4ClW-37" target="wnBwBd8DrcGJJynO4ClW-17" edge="1">
          <mxGeometry relative="1" as="geometry" />
        </mxCell>
        <mxCell id="wnBwBd8DrcGJJynO4ClW-37" value="SQS" style="sketch=0;points=[[0,0,0],[0.25,0,0],[0.5,0,0],[0.75,0,0],[1,0,0],[0,1,0],[0.25,1,0],[0.5,1,0],[0.75,1,0],[1,1,0],[0,0.25,0],[0,0.5,0],[0,0.75,0],[1,0.25,0],[1,0.5,0],[1,0.75,0]];outlineConnect=0;fontColor=#232F3E;gradientColor=#FF4F8B;gradientDirection=north;fillColor=#BC1356;strokeColor=#ffffff;dashed=0;verticalLabelPosition=bottom;verticalAlign=top;align=center;html=1;fontSize=12;fontStyle=0;aspect=fixed;shape=mxgraph.aws4.resourceIcon;resIcon=mxgraph.aws4.sqs;" parent="1" vertex="1">
          <mxGeometry x="1000" y="310" width="78" height="78" as="geometry" />
        </mxCell>
        <mxCell id="wnBwBd8DrcGJJynO4ClW-38" value="SES" style="outlineConnect=0;dashed=0;verticalLabelPosition=bottom;verticalAlign=top;align=center;html=1;shape=mxgraph.aws3.ses;fillColor=#D9A741;gradientColor=none;strokeColor=#FF8000;" parent="1" vertex="1">
          <mxGeometry x="998.5" y="80" width="79.5" height="93" as="geometry" />
        </mxCell>
        <mxCell id="wnBwBd8DrcGJJynO4ClW-39" style="edgeStyle=orthogonalEdgeStyle;rounded=0;orthogonalLoop=1;jettySize=auto;html=1;entryX=0.5;entryY=0;entryDx=0;entryDy=0;entryPerimeter=0;" parent="1" source="wnBwBd8DrcGJJynO4ClW-11" target="wnBwBd8DrcGJJynO4ClW-37" edge="1">
          <mxGeometry relative="1" as="geometry" />
        </mxCell>
        <mxCell id="wnBwBd8DrcGJJynO4ClW-41" style="edgeStyle=orthogonalEdgeStyle;rounded=0;orthogonalLoop=1;jettySize=auto;html=1;entryX=0;entryY=0.5;entryDx=0;entryDy=0;entryPerimeter=0;" parent="1" source="wnBwBd8DrcGJJynO4ClW-17" target="wnBwBd8DrcGJJynO4ClW-35" edge="1">
          <mxGeometry relative="1" as="geometry" />
        </mxCell>
        <mxCell id="g-lCjl9Iwci3eXvBsUKC-43" style="edgeStyle=orthogonalEdgeStyle;rounded=0;orthogonalLoop=1;jettySize=auto;html=1;entryX=0.495;entryY=1.024;entryDx=0;entryDy=0;entryPerimeter=0;fontSize=20;" parent="1" source="wnBwBd8DrcGJJynO4ClW-42" target="wnBwBd8DrcGJJynO4ClW-34" edge="1">
          <mxGeometry relative="1" as="geometry" />
        </mxCell>
        <mxCell id="wnBwBd8DrcGJJynO4ClW-42" value="Batch Server" style="outlineConnect=0;dashed=0;verticalLabelPosition=bottom;verticalAlign=top;align=center;html=1;shape=mxgraph.aws3.ec2;fillColor=#F58534;gradientColor=none;" parent="1" vertex="1">
          <mxGeometry x="640" y="1070" width="76.5" height="93" as="geometry" />
        </mxCell>
        <mxCell id="g-lCjl9Iwci3eXvBsUKC-5" style="edgeStyle=orthogonalEdgeStyle;rounded=0;orthogonalLoop=1;jettySize=auto;html=1;entryX=0.457;entryY=0.002;entryDx=0;entryDy=0;entryPerimeter=0;fontSize=20;" parent="1" source="wnBwBd8DrcGJJynO4ClW-11" target="wnBwBd8DrcGJJynO4ClW-34" edge="1">
          <mxGeometry relative="1" as="geometry" />
        </mxCell>
        <mxCell id="g-lCjl9Iwci3eXvBsUKC-7" style="edgeStyle=orthogonalEdgeStyle;rounded=0;orthogonalLoop=1;jettySize=auto;html=1;exitX=1;exitY=0.25;exitDx=0;exitDy=0;fontSize=20;" parent="1" source="wnBwBd8DrcGJJynO4ClW-11" target="wnBwBd8DrcGJJynO4ClW-38" edge="1">
          <mxGeometry relative="1" as="geometry" />
        </mxCell>
        <mxCell id="g-lCjl9Iwci3eXvBsUKC-8" style="edgeStyle=orthogonalEdgeStyle;rounded=0;orthogonalLoop=1;jettySize=auto;html=1;exitX=0;exitY=0.25;exitDx=0;exitDy=0;entryX=0;entryY=0.75;entryDx=0;entryDy=0;fontSize=20;" parent="1" source="wnBwBd8DrcGJJynO4ClW-24" target="wnBwBd8DrcGJJynO4ClW-11" edge="1">
          <mxGeometry relative="1" as="geometry">
            <Array as="points">
              <mxPoint x="490" y="807" />
              <mxPoint x="490" y="263" />
            </Array>
          </mxGeometry>
        </mxCell>
        <mxCell id="g-lCjl9Iwci3eXvBsUKC-10" style="edgeStyle=orthogonalEdgeStyle;rounded=0;orthogonalLoop=1;jettySize=auto;html=1;entryX=0.5;entryY=1;entryDx=0;entryDy=0;fontSize=20;" parent="1" source="wnBwBd8DrcGJJynO4ClW-24" target="wnBwBd8DrcGJJynO4ClW-17" edge="1">
          <mxGeometry relative="1" as="geometry" />
        </mxCell>
        <mxCell id="g-lCjl9Iwci3eXvBsUKC-11" style="edgeStyle=orthogonalEdgeStyle;rounded=0;orthogonalLoop=1;jettySize=auto;html=1;fontSize=20;" parent="1" source="wnBwBd8DrcGJJynO4ClW-11" target="wnBwBd8DrcGJJynO4ClW-36" edge="1">
          <mxGeometry relative="1" as="geometry" />
        </mxCell>
        <mxCell id="g-lCjl9Iwci3eXvBsUKC-18" style="edgeStyle=orthogonalEdgeStyle;rounded=0;orthogonalLoop=1;jettySize=auto;html=1;fontSize=20;" parent="1" source="g-lCjl9Iwci3eXvBsUKC-19" target="g-lCjl9Iwci3eXvBsUKC-20" edge="1">
          <mxGeometry relative="1" as="geometry" />
        </mxCell>
        <mxCell id="g-lCjl9Iwci3eXvBsUKC-19" value="ClodFront" style="sketch=0;points=[[0,0,0],[0.25,0,0],[0.5,0,0],[0.75,0,0],[1,0,0],[0,1,0],[0.25,1,0],[0.5,1,0],[0.75,1,0],[1,1,0],[0,0.25,0],[0,0.5,0],[0,0.75,0],[1,0.25,0],[1,0.5,0],[1,0.75,0]];outlineConnect=0;fontColor=#232F3E;gradientColor=#945DF2;gradientDirection=north;fillColor=#5A30B5;strokeColor=#ffffff;dashed=0;verticalLabelPosition=bottom;verticalAlign=top;align=center;html=1;fontSize=12;fontStyle=0;aspect=fixed;shape=mxgraph.aws4.resourceIcon;resIcon=mxgraph.aws4.cloudfront;" parent="1" vertex="1">
          <mxGeometry x="-60" y="327.5" width="78" height="78" as="geometry" />
        </mxCell>
        <mxCell id="g-lCjl9Iwci3eXvBsUKC-20" value="&lt;font style=&quot;font-size: 12px&quot;&gt;S3&lt;/font&gt;" style="outlineConnect=0;dashed=0;verticalLabelPosition=bottom;verticalAlign=top;align=center;html=1;shape=mxgraph.aws3.s3;fillColor=#E05243;gradientColor=none;fontSize=20;" parent="1" vertex="1">
          <mxGeometry x="70" y="320" width="76.5" height="93" as="geometry" />
        </mxCell>
        <mxCell id="g-lCjl9Iwci3eXvBsUKC-21" style="edgeStyle=orthogonalEdgeStyle;rounded=0;orthogonalLoop=1;jettySize=auto;html=1;fontSize=20;" parent="1" source="g-lCjl9Iwci3eXvBsUKC-22" target="g-lCjl9Iwci3eXvBsUKC-23" edge="1">
          <mxGeometry relative="1" as="geometry" />
        </mxCell>
        <mxCell id="g-lCjl9Iwci3eXvBsUKC-46" style="edgeStyle=orthogonalEdgeStyle;rounded=0;orthogonalLoop=1;jettySize=auto;html=1;entryX=0.5;entryY=0;entryDx=0;entryDy=0;fontSize=20;" parent="1" source="g-lCjl9Iwci3eXvBsUKC-22" target="g-lCjl9Iwci3eXvBsUKC-45" edge="1">
          <mxGeometry relative="1" as="geometry" />
        </mxCell>
        <mxCell id="g-lCjl9Iwci3eXvBsUKC-22" value="ClodFront" style="sketch=0;points=[[0,0,0],[0.25,0,0],[0.5,0,0],[0.75,0,0],[1,0,0],[0,1,0],[0.25,1,0],[0.5,1,0],[0.75,1,0],[1,1,0],[0,0.25,0],[0,0.5,0],[0,0.75,0],[1,0.25,0],[1,0.5,0],[1,0.75,0]];outlineConnect=0;fontColor=#232F3E;gradientColor=#945DF2;gradientDirection=north;fillColor=#5A30B5;strokeColor=#ffffff;dashed=0;verticalLabelPosition=bottom;verticalAlign=top;align=center;html=1;fontSize=12;fontStyle=0;aspect=fixed;shape=mxgraph.aws4.resourceIcon;resIcon=mxgraph.aws4.cloudfront;" parent="1" vertex="1">
          <mxGeometry x="-60" y="671.5" width="78" height="78" as="geometry" />
        </mxCell>
        <mxCell id="g-lCjl9Iwci3eXvBsUKC-23" value="&lt;font style=&quot;font-size: 12px&quot;&gt;S3&lt;/font&gt;" style="outlineConnect=0;dashed=0;verticalLabelPosition=bottom;verticalAlign=top;align=center;html=1;shape=mxgraph.aws3.s3;fillColor=#E05243;gradientColor=none;fontSize=20;" parent="1" vertex="1">
          <mxGeometry x="70" y="664" width="76.5" height="93" as="geometry" />
        </mxCell>
        <mxCell id="g-lCjl9Iwci3eXvBsUKC-30" value="LB" style="outlineConnect=0;dashed=0;verticalLabelPosition=bottom;verticalAlign=top;align=center;html=1;shape=mxgraph.aws3.elastic_load_balancing;fillColor=#F58534;gradientColor=none;strokeColor=#FF8000;" parent="1" vertex="1">
          <mxGeometry x="273.5" y="150" width="76.5" height="93" as="geometry" />
        </mxCell>
        <mxCell id="g-lCjl9Iwci3eXvBsUKC-33" value="LB" style="outlineConnect=0;dashed=0;verticalLabelPosition=bottom;verticalAlign=top;align=center;html=1;shape=mxgraph.aws3.elastic_load_balancing;fillColor=#F58534;gradientColor=none;strokeColor=#FF8000;" parent="1" vertex="1">
          <mxGeometry x="273.5" y="827.5" width="76.5" height="93" as="geometry" />
        </mxCell>
        <mxCell id="g-lCjl9Iwci3eXvBsUKC-49" style="edgeStyle=orthogonalEdgeStyle;rounded=0;orthogonalLoop=1;jettySize=auto;html=1;entryX=0;entryY=0.5;entryDx=0;entryDy=0;entryPerimeter=0;fontSize=20;" parent="1" source="g-lCjl9Iwci3eXvBsUKC-44" target="g-lCjl9Iwci3eXvBsUKC-22" edge="1">
          <mxGeometry relative="1" as="geometry">
            <Array as="points">
              <mxPoint x="-80" y="776" />
              <mxPoint x="-80" y="710" />
            </Array>
          </mxGeometry>
        </mxCell>
        <mxCell id="g-lCjl9Iwci3eXvBsUKC-44" value="&lt;font style=&quot;font-size: 12px&quot;&gt;Cloudfront &lt;br&gt;Function&lt;/font&gt;" style="outlineConnect=0;dashed=0;verticalLabelPosition=bottom;verticalAlign=top;align=center;html=1;shape=mxgraph.aws3.lambda_function;fillColor=#F58534;gradientColor=none;fontSize=20;" parent="1" vertex="1">
          <mxGeometry x="-160" y="730" width="69" height="72" as="geometry" />
        </mxCell>
        <mxCell id="g-lCjl9Iwci3eXvBsUKC-45" value="Oauth2.0" style="shape=image;verticalLabelPosition=bottom;labelBackgroundColor=#ffffff;verticalAlign=top;aspect=fixed;imageAspect=0;image=data:image/png,iVBORw0KGgoAAAANSUhEUgAAAKYAAACbCAYAAADobOAEAAAgAElEQVR4Aey9d39TVxo1er/Ie++EloSAKQnJTIIludCLG5ACSRgScIEE0ikJqYALhiRk0iAUFyAUd+OKC+62XGVbtnSkI71fZN3fevbZkuxQbGJPQiZ/7N+RjqSjU9ZeT3/2/xMMBvG/PAKBAKY6ZuI+6f+KPJbeN3kb+Z3/tdf/z//aBUde72QgPOh95G8jX/N3ke/v99o0TZkI/I7+P/19/T5yqz+L3E7n/yJ/9yi9/p8FZuTDn+rruz1Y/du7fXa3ffr7kVv9vch9+rX+LHLLzyLf/xVf/88DUz9UDQTNaPp95FZ/V28jP+Nrvf9+2wf9JvLzex1nqv91r98/Cvv/BqalY2tATAWY+rszsZ0MksnHnPw53/M7d9v/V9r3Pw/MyUC433v94O/3nYf5TB+XW/37+00QfifyN3/F148cMAN8eNZ4+AcSQCCorHEzQDDooR64Bge3pgwTZsC0fmMiYPoRNP0I+Aw1DAMBGV4EDGt4xxHg0O9D3+FvfAj6rWOYJoIEmjUC/J+ACQEmDSUzYI0gAubE8wwGeb6R424elggQB4II6qElxYzcz7v97+/b92gAUz+4YAD+YAA+a/C1SYBZw9SuL1M9gAkAlgdCABBgPphBnzpWIIgQOPk7U3/HhD/ghxH0wxv0Ydz0wvCPw+t1wz82CnPUBf9gH3zdXTDa78C4cxveplp4m2rgabqF8dsV8DbesvbVwtvcAKO1Gb6udvj7euB3DcI3MizHCngIYgLaQMBvIBDwyXnKufCc/OHBc/UHCWZTTQ6/T7bBgF/tI1AjwBcIWvt5DF8QQcM6lhkE75c/GAzdz4ef6L8PhHf730cHmEECypSHwgfDwfd3ZQw+mGD4xvPm8yEQqNyvmVA9FPVw/MJUZLMxmB4XzNFB+Iec8PV2wWhpxHhtJcaKr2L4yiUMXvgZfT99i55vctCZfQztx46i7bNDaP3sA9w5+h6aPn4HDYfeQvPhA2j55D3c+eQDtH52EG1ffIKOzC/RdToLXWdOo/fn7+DK/wXDN65gtLIYnoZbMNob4evvgDnSB9MzjIAxjoCfk4gAUudKFg+SaSOHdX0abHprhO6VBR7r3vBe8DuRE/tuAPmj9j0awBRxpYDIG6lvpoBSs4PeCljJiH5hRD5QPQSc1vdEfFNUkqGMcZhuF/xD3fB2NmKsvgxjpVcwWvgLRn7+Fr05x9F29CO0vpuK2+mvofrfW1HxSiIqtm1AefIalCfGo2yTA6Ub7SjdEI2S9StRtO5fKF73grwuWR+N0o0OlG6OQ2nSGpRv3YDylzfj1mspqN/9CuoO7EH9oXfQcuxjdH57An0X/wPXzTyMVt3E+J06GL3t8I0OwOcbhWl6ETTJkharTpqAkdeqwByWMAS2Gmof72NQsy/BriXOn2D7SABTgVEzZMTMF9FL8WsN6orCEAb8QQOmsKrFlBqQ/C71RtMH0zMC/0A3jI4mjNeVw3UjH90/nUbTV4dQ+84eVO7chvJtG1G6OR4l62wojV+B0rjlKItZikrHElTZo1Btj0KNbTFqoxeh1rYIddaosT+FWnv4fa19MWr4XfsS3HIsQYVjCcpilqA0dimK41agaPXzKF5vw82keJRs34SyPa+g/uBbaMv+DP0XfoC77Fd4m6vh622Hf3RImD0QNOALmvAGgzAiGFVEOUU3dVILuFR/yJ5q+OEL+hES88K8fwNz2jOTAPOHbiTFWAQQQ4aLNgyofyk20UYNHxQNDtHhPKMwh/vgc7bCU1eO0Us/oSPrC9R/+DZK//0KbiSvQ9HGGBSteQGl8c+iLG4FSmOfRknMUpTZo1Buj0KlIwpVDguU9ijU2qNQZ18sQCQYOWrsi1BtbfX7Ghv3R6HKthi3rOOU2xejykZwR6HKvgSVjmWoiFuBstX/QvHalSjaFI+SFxNQuXsH2g69g75vczB8I1/0V19vK8yxAfjNMQEaGZLXLDopdUk9QiA1RZJQv6aeLfdJg5K69Z+AKfU5PCKMyRtqKfyiXynjRutRWveiMUT9MQRcf0CsX4pqv6sPRmcTPNVFcBX8hLacz1H34V4Ry8Vb1qFogwNF8c+jPGYFquzLUW1bImAhIxKEtwjGGIInDMg6ASRBGYV66zVByqHYUW31Pr3lZ3JcHlu+vxj19sUWuPXvl6DKtgyVjqdRGvssilc9j4pNsah8KQHVaa+j5ej76PlPjoh8T3ONML/ppk5KUU+L3wwD1AKmMop4f5RHQOmo9DwofVOD4s+wfSSASfGsDB2C03J5hCxKijElphSrEoy0QAMIeDwwXS74Ou9guOIaun7ORf0n+1G15yWUbFmNm2ufx83Y5SiyL0G5sNYSNNiXoMkWhSbbYjRYYKkhqzmUKNbg0qCst0VBD+7Tn98PmPo73ApIhYHVf1Q7FqPWsRi3+f82bqNQZyNIl6DMFoVS2zIBatkGO8pfSUDt/jfRlvkpXAXn4L19C76+TpiGC97AKLxBQ1xMypJXuraAjuzISUvLPKD1TktF+pOw5qMFzAg2VDdU6000dvgQvAgEvPD6x2GOuGC0NGPs+hV0555A7YE9KNmRgOsbVqIo7mlUkAWjnxJxW0Wx61iE6pjFqLY/Ja9rHEocEyQahBTXkYMsFzkiP+PvJo/Iz9XrRah1LBJGrnJQ97RUhBA4F+G2bZH8B4/F86SKQJ2W3y2OWYYbq55DceIq1Ox6BW2ffYS+c9/B3VgGj6sVXmMQRsALI+iDV3RRGj0WO1rq0N/A/B0zkWJcifKwmA7fUL+AMWCMgaKMlrW7rRYD1/PQkXMMDW+loubFBJStj0ZZ/AqUxywRIPAB01Cpp+HChy3AXIRbMdYQwCiWJGPV25b8BmiTgafeK7AJgDSQrOML2An40OAkoJFEpl0ihpFi2gjWtCv2DOmp9kWoshOYi1DhWIxyRxQqY59G2ap/ojQhHpU7X0Tj0ffR98vX8NTcVK4nrwumOQoj6BHjh4aQ6KJiCAbhDyj/8J9BhOtzeCQYUznVKc4nA5MRGbp7RmG6BmG03IH75mV0nP4CNQd2o/SljShZsxJVjqdRbV+CajE0FOuQBSkmG2Vr6XcU147FoDiVYYnmOvsScESK54mvf8uOk0ErxhDBLyPiPxxkXXUuPCcNTJk4ZGSbGsKwDqUqUD+9RQaNIcuT9RcK81c4aOE/h5sJ8aja9RLaPz+Iobyz8Dbcgr+/E6bXBR8t+YBfIlnKgU/1yLLQfwd5aEDN1PYRAabSj8RBrt0+4hCnpe2Gv78bnppqtPz4A2rfeQvVSWtRQmPBsVyMjDq6bhxPocqxEFUiopXeRhZssC1Bo83SK6MXW/plFBptkWAhqJcIq5HZ7jbIqppZb9uWgIPH1/sJbP07uowiBwFJlUDENZk6huI9rEpoRq21L0W9bRlu25bK7/mdqpiFqHE8gXrHk6gXT0AUyhxPoyj2ORRtWo3KN3ai+/hXcF8rFF3bHB+G3+eFSf9tyB9qIBjk+PPomX8YMLVFza3cEAKOoiXCgiRTUj+ir46RGTXDqbiboOj2D/fC21SJ4bzv0PxROkpeXI+SNc+jKnY5qhxLLTCRZdRDpxHDoY2PsO5IoFpGTISFzc/1d6eynXC8CIt9KsfR34lk4rv9p/4Pfqauh6pDWPflfk4i6qyVsctREv8Myjc60LD7dfSfzoKnrgJ+Vxf8/hH4Ax5x1AcMHwI+hl8tlUnCmD4ExUXHgIbyh5IYlF909l1Lfxgwhf00KLnV1rbeyme8ATRs6MdU4TPTMCRO7etqwejNy2jLPIpbqa+geLMNJfFPi1Fwtwf6v7iPqkuFYxFKY5ajZL0NZa+koPnoRxgsPAdPSy3MsX4EfF4EfMq1FJZISrwzKkRQamAqRmUY2D/r7PqHATPka5RQGG8AFfBw+FCAyswaH5MQrOQNvwFjuB9jzXXou/Az6j/Yj5Jtm3A97p8otkWhkn5GSw/7XwTi5GuuFsMoCiUxS3AjZjl+jX0WJZtXozbj3+g9kw1vQwXM4QGYhk8leFBaaYlF6WWBMgxMRRRK7M8ua/5xwJSbwItjTNsQka0SDqzoheXO4GwmOBm1oYEzfKsULV9nonT3qyhaH4NyxwrU2ZaigSJYfI2MvExPBP9Vv0/GpJHESBXdS9UO6rlLUR7/HCp3JKHhy8MYLL0BX08fAuOW/5e+TTMIH7OYGDGznoPKuiJJGGpInH32dNI/EJi0sMmUPhgCTMa3eeHWrCVwA3SemzDdIzDaWjB8tRCNRw6idHsKbq5+ARWxz4guJTqk7SncnhQ9+asCbjrXVe+Iwm0H9Wda94tQZ18ksfqi1c+haOsG1Hz0HnrP/yIeDd/YMHwBkgRj6gqYIb2f1aQS6KAFT/3zr8qYVoybho0CJlO7GCoLqKgNmdJvwGOMSq7j0LnvUf/OWyhJWI/y2H+ixr5UHM5iwdKKtS0S1qQLaDoP7q/8XbqhGu2L0Sj3ZjFqbfRMPCX3jUkoJbErcGPTKtTufRMDP32N0eZbMEa64Q+4JQeVrBnS/S0dX+fAzrYF/4cxJvUWZdBQuTYlCYEgpfPXpF+NqWijLgy3NqLtuxxUpu3AtbU2VDmeRZNtKZpsTJJ4EuWxC1EaSxaIQgNFum3p38C0VBmGNXmfGFqlBc97VC7xfoJUeSEq7MtQsvZfuLUzGR2nv4Sn9ib8w10wzTH4TV+o1EPlwFpRo0ijdZZe/2HA1IaOFhUBU6VkjQmDjsM/1AVPdSlasr5C8espuLbuX7gZswzVjqUSR24U3+RCVMWQBXjj6ZNcLj6+vzILTufaKL4bGSkSQDLNjlKG94+5APTVat/pYlSsWoGabYnoPn4UnqoimO4h5Uqyqga0/h9StcimswRKHvcPBSbDiirhQvkwmSPoDYzBcHXCXX4VHV8dQeUrSShZ9zxKYpegTMeSGU6UiImKIysfJB3aS8WhPZ2H91f+Lp32ZE3mf5bHLEWFY5kYijqgQJ1TIl0C3qUojYtG6e7X0XX+J3gHeiRznqoVI24TgMkSjb8qMLWzNuQ24g0wvPC7ejFedRN3Pv8QJVvXoCKO4UQ6kxkj5uxnMoNKG2uQWU8RTlDqcN7fOqaebHTG876Iw93OgAPZUkkcejHUPY1CpS0KFTHPoHi1HeX7U9FzJQ9e11DYhWTVGRGc4uukYTqLbPmHMiZ9k7TylAUYgN9nwN/fh7HSMjR9fBgl2zaiKG4pah1PoMn2JJptT1m6Em8oQ33L0CBDiSbe5EpJvPjbXRQJTAKxKZo6OfVvuoyYXrcINZJJxXzQZSi3r0DJOjtupe1A9/lvMdbZCMNvhIvXmHAs3hN6UCxwPlLAlEo95UaING5kdjGkyM912IuOdWsm0vr29XVh7OYVtB9+H+Up61Ae/6zlClIZQBRJEk+OTKywmFLCeUy8mBRy1A/oXlvNKDqfUm9DYb8JqWsUeyobSCViWClooQwiZWCoMGHUhDDh5HS3yCwkpr0xxs1r4/f4e5EKAqDwa+7n77hVEkRJhshr0OetE0HqHDR8nhRdstG+FHX25bjFcKV1zsywL2E+6kY7qjJ2ou3Sz/C0NcAcH0LANMIhYBHnqgBQ6oRmWYzPPGOGSkjDERwCVIApWdMqnZ+FYsw0l/ppMqWrD+Ml19H5+UeoTF6DUsa6GWt2WEkQkgDx3xHRKtnC+q8JwCQwVFxaAYsx98gRViUIDIKMYNPZQRp4/I0Cryq9IDh0rFsDT32uQRiecAJKAaz6r0hQRk6qMDAXotH+hJwLjcZb9mUCTNYm0b9ZxYjQhpWo2vsqes9+DXdPJwLeEQT8XgVM5rgG/eI1ISAlu4ugtKJC8lz1853h7QwbP2RLXkDYFaTYkhdjlZuymF/qwv3wBwz43UMYq6lEy1efonjrJhTFrkCJI0pyDRlSo/uHN/1erPd79pN5KmLU0NERWrBMgKBeFpkBxMygRtsyGUqFYJbPMjG4JIsoeglqpRxDbWn5Uo/jVoFGZReJvicZ6RooLJ9QBWr8jMcS4yR6CZqi+Tqc5cTz/Q1bTkoWIVj1PVHWN9PjlqA0ZglKYrRuzgm1BJXrVqIy7VX0nf0aRlcjmBgjVaNkS9ZNSRKHSjcU3VKD71FjTJ48GVIPsdwiQ1omqxNVjYkRHIfhdkpRVUfWMVRs34aiuOdxy8EKxEW4ZX9KchMpgviw9M2eyS0ZSKeYUffiex5fRCJLGkSX1elqKuWMaWcc1HEZClVDfycMCh5Xko4dKixIwCtQqe/K76LVsZgJpaoulYTQwGwmOCU1T2U/kQl5fgS6Ftv32vI7nNRN0ctRFbMU5XFRKI/lPWXu5hJUrF2JuvSdcJ77HuOtjVIxyvp1qQeyVC4V6VFE8xcCpi7IZ+hRpU4xksBBcAZ8Qxi/cwvOM7moeX07StfYURmzXJTzOvtC1EuIkQ9idkCpAK7Esxa7UmdjV7U+fK3Zhw+SoIqcFEpcKrAp3XaizskSDYmyWAaZlG+IbqfALxNA6nnUMTRwZb8FPsW0KneUeZ28FwI4S0XgeSvVQIn2yN8KY4sFrpKkq2I4QRbiVsxilK5/AXUZO9H78xl4W5vgd49KFrsQiej+SmyrDifhlLeQ6H6UGVNqltmfh7mTEvMOwkt/mER1DBg9Dei/8A1qU3eK/+xWzDOojolCTcxCNNkXKivcphIQ+NAiQTFTrwk8rQcyOkKHMx3SDfZFEnenzkcmZcSEyRA1DiblLkS1JBw/JWxLdmdqWaWVLKFVAqohAl7L96pUBB5LJQGL64vgterPaQDp8gkaV5IEHNInlXogySqWY1xNHG0QhfVb3hutRhDEBDPfU6/kNZSs/6dE0Zxnv4W3o1lcdOyTxMQNAo/PiuyoB6Wffv3IApMzjhehDJ4wYzLKMy7DgM90w+9ywn3lHBr2v4midXZU2lSmeU0sLd8n0WRTwOTNL2MILWZ2gEngUP8iiGiEKKf9U6h38LWqzSHTVMYqnZfGD8sYCK5SxyIUOaJQFLcMRatWoGT989J1o3j9ShRvsKFkvQNl6x0o3+BA+XobSta+gOLVz6Ik7hmUxC5FKaMxDBOKNf4UbtsoJRailuAXcUuRS9FrqRfRS1AXTb1WRWw4kTiplMHECa1VBVVKzO9JSbGD1ZZsxrBEatWr0nag99L3GOtqgun3wqRR6mc+pnIDaRBO3oZAST3zUWNMba0pC07lUfIiDNOEhwYPQTnSg/HqInR8+DYqEuJxM+ZpAQf9kPWOhai3L8Rt21Ny0/lQVLrWLAJTDB0ySpSwJEtmaUnXRVPnjMItPlD7EhQ7luF63LMoWrcSZUmrcIuls7tfQeOBN9FyeD/avziIzqyj6Mr+Ep0nj+FO7nG0nDqBtlPH0ZH9Bdq+OoK2o++j9cN9aN77b9Tv3IaqbRtRsjkexaufQ0nccjFQdIcPMpxSLWhEKT273r4Mt+18rz4TUW7pxjWWDku1Qol0pQIp5l2C8vXRqEl9DX3n/wNf1x34WSfFWn12rfP7VJQngh0jgTkBlNoAmuXtzFrlljhgBopfOj2o4jHm9bFEwhwfgLe5Cl2nvkJ18npUxK6Q+C31HtbkNHF2iztFJfzOlgiPVAXYAaPe0t0IRhpaNbSaHctREfssSlc9j1sb41CzbTPK9/wb9e/vR8eXRzFwJhejl85i7OZliemzy5vR1ghfZwt8XW0Y727HeE8HvN1tMDqbJUPKU1+J8dIbcF/Jg+vc9+g+mYmGTw6j9q03UblzC4q3rkER2XbVcyi3L0eNfZkYYGL1W8YYWTDS76kYk/qtmkicTNSJa9jCJmYJimOjQBavSd+J3h+/lfMzDTeMgE+SZaQQTXyWtMLDYlsD848AJf9zxoHJC1LRHFp4TGFT8XDTGIPR1YSRi9+h6t/bUBH3HKpsSyXrnEp5veMpKfBnePGWYxnKHcskxstohehIk4yPSHA97GvqmGQlxZBRqI6OQoVNpYMVr7OjJHkDqv69HW0fvIOBnEwMXL6M8apbkrvo7+2B6RpSJcNeNwzfOAzTByNgRbMCJnyh4YPPNODzjcP0jsIcd8EcGYK/vwfutmaMlhVLB7k7mV+i6p0MlLy6BTc2xaIo/p9SFkFPhbiuRGdUk5gTmaDUQ/onMcxoAZIur5K4Zfh1w/OoyHgNzrPfwWhvgd9Q/Y5U7qtyCwVYNTnL+ZXTBfiMA5PigT0lyZAhYBpBaUAwXHwF9Qf3oXR9NMpjn0altF+hPrcQjUzKsHHW06+3XAZnPg0SgudhwXf/36kcReqXNFqK45ajaP0LKHl5PaoP7EJH7hcYunoenroyJf6GCMQxBLxWw1a/T5pzsY8mh2q2GkBAWtOozPtwg1afVCWyMlGLTikCk8z8Efh7+2G0tsJTWYLBc9+i7fP3UfXGVpQkxaBk1QpxJ5ENCUTWojMKRZ2Y4lyGdY94z8RYi1mCsg0voGbfqxj85WsYLQ3Sg9MnGerUJ1lLpZoh6C5wE1s6Kp/03RKCST7TBdp0vz+zwJSZp0NXatkQ6YjrMWA03UFH1gmUvbQJ5bFsHqX69jC7RYXlVH01mYGpWSKOxG0SdtvcH2RKD2WmkXKtkD34EJUbh/tVAgPbwFAcLkYNE2dtUSiLexrFm6JR8loC6g/tQ+/3J6U+nc1W/QNOYUXVE4hhVasxqiX2tM9WHhaNAg7x3aoMfQksSF3TpAct31WuNDE8WD7i9cJ0DcPX0QZPVQWG88+h/csjqE3dgcrEVaiM/xeqYuiX5ARWjRXInDSWmJkuVrhtKUrty1DGiE7GDnRd+A4Gw4xulzR2ZUaXEtN04UW0ahSDJvIc9evfgvCRAyYvVBk+fDi8cBM+0wvPUC8GL+ShbvebKIunE/1JsYJ1FINMIGwwA+Ja6rijl8nxVExbtQOkAdFkX47bK2ndLha2qYlbivJV/0LZ1rWoe+dNdJ7JxEjFDfg6WgUgAcNqTDXrTadYeWiBnpk7RhCBMQPmkAvehjqMXDyLziMfoHr7VpSy2jFmmQrZMhGDrquYJ8WLwFr2atvTKFq9ErV7d6D7l68x4myVhhCM6EgXYkme0eD8Leimy2yz9f0ZZUz6wNSMJFt6EAi6YY45MVJXjLpP3sXNpFWiM00GZBiYv19kqzAis9hVeI86apOlS9IZTYOgMm4ZSmKWoXjDSpSn7kB39lGM3bgIo/M2zNF+aaLA/uqcXIzpq9bas/gQJzCtKgYzzKBk+LC7sa+3Rdq9OL/PQR07jCSuRpljhRSW0ffJpgcVjoUop165ZiVq015H77mvYXTUSfeNgM+jYt/SJCIcyQkz373ZcbaA96DjzjgwCU6pfAy4EfAPw2ivR/f32Sh5bSNurn5GfJIhUWsxpQImxdPvB6YW9/wPxrIbpQyDYlzVuhTFROHy6hUofWkDmg++jd78s/A2VcM/oFqosBmqlBGEJhnj/vQykNVmCZyRwJSMKwYjgmA2Pzu2+c0RmON98HTUw3XlIto/+wQVr2xFyZpolMXQzbQYRXFLULRxJWrSdmDw3BmMtdXD9A4h4NegZGaXCgcrUa5Yc6JeOUvX9xD3bUaBKRnpchLsnGHAHBnA6I0CNLyTiqL1z6GcDnQ78yqVPqiZUm81qH7PloaAsrQVY1KvJGtSJyuNicK1dc+iaGcSWo8dEVcPe6wHvKPSKU4ZbVavcw0WmWhkmVku8uf/WHkFDEiwSnE8GMB40I9x6Rzsgc8Ylp7wnooKdJ7KRmXqq7i2KQZXYp/BrxtWonrvDvT9lAujoxF+LmIgVadWg1ZJN7wXMC1V4iEANFuTdQaByYfH/jd02jJZww+j4w7aTx5DxZb1qGJav8R4F6KJ6WPSZyfse/s9YIz8LUHZFK3AWSdWvkobY2lBKQ2C3S+i5wxbpZRLsT91L1UMp8BgMJ5PgEjdu7Wl24tjlh6crn+SiJkAVKkQqkWOKtCj60msfsMHc9iF8bZGdJ47g9L9e3AleSOq0nZiUMR3vWQJ8fylJtzqLcq4d6ShpllTMabKk52t63uY484wMMeVgu0Lwu8ZwUhtAW4d3IGi9cvE3aMcxbSKlf9NMyW3keD6Pa/p82xmupzEoGkYLBJ/3o3NDtS9vRvD536A0XpHKjAlGZbd4iw/nuhcmrk0MC0Wm80wHAEo1aHiSwxHYyRUKJMiPFHo5WCHO79vFN6uZgxcK0D7qVyMFOSJgz9guGDQYU7/sS9s5GggRm4VYDjhyJizN/H+cGBK6xCuBMHW0qNNGCj9BNWHHChPmYuq+AXi5qArSEUrwokHMwlMDeo6m2rAWhq/BMXJsbj94V4MXvoFRlub+CLFvygPhMmwqmd76OEQnHpEREMe5gZP5TdkbIpdejWkLxBzIaUTW9g9RfajqkTWo1oRoKo0PgJ/nxPGnVb4nE5RSdhmkCoJOyqza3AkECNfh8+LgNTjL6pjio+Pq0EYTniHLqKv6BW0ZS/DnbcfQ9WWOShf+wTKYxfjVgwzdKhvhsGpAfV7t8x8l27Bjii1IkSCHY0fpmP0Wh58zi74fAYorlXrEyYtW8AUUChdSwEl3EtJ93gPP8yZfoB0eKselXqrylAUixGMFPehbsD0i1qZWyoBIyDd8HT9FNlXuYaUwRYJSL6eveuYuWPPoChXynsgMAyfpwLD7QfhvLoS/WefQH/uXLR8MB/VO+ahdMM8lMXPUX0dZwOYVg31Tccy3Ngci/p30zF2PU+sbsPvhlsiUwSm0hs1UynjJgxM3XxB63/cztoDtXIgeXwNQv5f5GuCkr3mJXQYoV5QdyQQVR967dqKVA1m8bxn8Z48NDBVzY5S0vmabEmdzTTb4R45h+7q7ejMj0L/hXkY/GUeer95El0Hn0TjznmoSvw/qIp/YlYYkyzMWHvxejvq96dh6OIv8PV0wDRG4A164ZF+mwwfqj5JBIC4uDQ4ZEk/MqliMKV/KcDOHjDDqWSRYORr+bpdIEQAACAASURBVE+qFVr/tFQLnrfyryqxznvPpf440TiphBnld1MD5p+NSacFzNDJa/3LqnxUC3MSmG74vBVwdR9FR5EdXXmPoz9/Lvry56Hvl8cx+M1C9H32OJr2/h9UJf4DVasX4FbsE1ZPdCtTXUKUKieRLh4l7lXJAVPSVOycKoDqpS5dOCwrn2FHZgWVr3sB1amvovenM2LoSGw7oJp30S/oi8h8koBA6HoIEEsMiv5pAVKuU4nFWQGn/n8LdAQkRwhc8rkWz+ozHd+m2qHW66GezMmkaqoideSpnHPo2erJ8AdvHwxM66aFojp8HxIlZB2uFMGEAM7gYRjDl+C6vRPdhU/BWTAPfYVz0Vs4D70X52HwwnwMnpuHjm/+gZZ3/4Gal/8/lK57DOVs82JbimoWdDkWojZmAapjHkd1zEJZlKnK9gzqopejNXoxOqKfQjPro7msSMwS8Y1WxbDV80LURS9B6ernUfr6FnR+n4PxO/UIeNxWz0caGD54goY0jJIH918o3J8KKP7+zm9ZfWrA1DOZRsMEYKrZqhR2H7y+Vox056C7LBHd+U+gr5DAnIPegrnoz5uHwYvzMMRxfh4GTz2JzoOPo27nHJRvmIPKuAWSHS6ZMsya0SldkoGkGvM32xbijm2hOMy5SBR7rJMxq21PojZmEcodS1GxbS06jh+Gp75UHPxi3RKAVstDMiaNBJlcfwNz9vTm38m4UwYmZzXpXkZIH1OiT8QHFzzyFGHgzvtov2aHM3++sKUAs3Au+vLmYuDSXAxdmgtX3lwMnXsc/V8/gZ5PF6B5z2OoSX4MVfHzJCOIZQCsQlRbXf+yCE0s3rcvFJ8nU+PYRUIVbC2WvM7ijS+g8YM9GLuZB/9QB0zfqNK3ZDKpVC/V052Gj+Ub/J038G+2+y3bzcQ9mRYwtQKuGFIVmSnDgcZELzzD/4Gz5lW0FaxAX9489BfMEcakOO/Ln4PB/DlwWdu+gvnovTAfQz/Mx8CxeejcNwd1KXNwK/4JWWexxr4cdVJSwCVIVAcMgpLZ28xs59IhTI1jeSvDjsVxz6ByVzL6z56U3MmAb9gS28qXJ2WpsvCpWmJZRDnB+Tcw/5T3YBrAVIYAQUnfH5VuMRz4cCUS0YTR7sPoLl2HzvzFwo4D+Y8pUV44B30FczBYMAfc1184B92X56C7cA4GyZ4/z8Ng9nx0v7cAtS/PR9naBaiIVWvX3A4lxKrWeSwtEGBaBWqswa6xP42ShHi0njiIcYrw8RFxMo8FA/CQ5ekxYM10gIt78vwtK5hM+jcw/5T34IHAFEYUV4WKp7I1NXum05BgLQ9FYsB0wecrwVDzG+j89Xn0XHoSA5fmYCBvjrBmL5mToCzgew1WtR0smIuhiwTnfAx+/QS6Pn4CdbvmoSJxLipXzRMjiNY5M4VYvE92VL3FdUVhFCrXrkRtxhsYKy6Af7Abpo8WeFBAya1Y2nRI00UkVmuE1fs3MB9NYAq7iOuEjKOybPxBrwKnBUzT1wVj9BcM1Cajs3AZnBcXYPCiAmZfwVxl/OSTLRU4CdJ+S6QTmIP51D/nYeD8fAz+8Dh6vnwcTRlzJVpUuXYOqmKflKKsRtty6S5BA4kJsrTay+KWoeqlzejKyVQinJ2IIxbuFMc4z5MlqlYiBq9JO7D/Zsw/p9S4L2PS0JEHK+E6ApPsQ7eLV5Z+IwAYj/V7GzE2cAK9ZbHozn9KXENDAsy5IDDpNqI/kzomwcl9Q3lz4Mqbg6H8uegneAvnwkldlEA9Ox/92Y+j4935qH75H6hYR3A+gVqH7kpB/+aTqIhZiJsbnkfdO6kYLy2WxAx2+SCL89zUpLLcW9Zqs7wGDUx1bX/8gwkZldq4fAS2sz2hpwhMlnYysUDpZtQxKc4Zb2amt2+sHMPd76P75j/Rk/8EBvLmYegSWVGxpZPuIoshBZj58zCQN1f0ywE64EPAVMaS/P7cAgyefhIdh+aibuc/UJnwD5TEz5Vl9+hKonhncmzxjk3oOH0Cvq52+Jk8Ih4DS3xLBMQyfix2l8kVevD//YyayREzvmeY8VEbd7sO7rsbYPV37/bZvfZNEZjMs7SASTYS48cQxzXXcjSGr8J55010/LoMPfkLBHRkRDIhQUkmJCAH89SQSFCBAmSfRIb4Wlvwlpinv5Pg/G4Beo7OQ1PqYyhLegyV8WRO5lguwfXVz6L23VS4bhTAHB6C38qtDIcRVSSEzMihPAhqcoW/899jTP2AJm8fNVDyfCdfw1Tf3wuIk/dPEZhW+hUZU4rMaJUbCPiDMI1BeAfPoatmK9ovPwVn/jz002dJYErUR7FmJDDJpASrFt0EJxlVBi14vqa1Tqf8+XkY+n4B+o8/jqZ981GVNFec8bfiolCcFI+OrC9gtDVZbEmLm94DK31MLHCqHhE6pagjSiVR4Py9wNShQqsq1CrJoMpjsl4opO8yA0hlkNNofPQHr2fideimadyqzygJWImpVCvJmLJYVakvlGZ3Z9n7AlP5LZkkYLGNiMBhmEG3xJvlgXvvwOPMhrN0LZwFC8SRTuBxhNiQQBOLPLwVhqS+qQE5eVswFwPW6GdI8/w89H67AB0f/AN1r/6/uJEwF1UZL2Io/6JUE+qbwQuePPtm8n2kPqjvj1otjEuPqEnAODbXaDR8AYz4ghgKBDEc9MNt+jBuBOE2ghg11RgzgrKP+x+Z4Q9izDQx5guC58/hNoMYCQQw4g9iNBCE2xfEOKsYgqNSv8R7Egx6RPVjdj2xw7xR6dgi8f6Jz20KwGTWSiQwR2AGx2VdHgGmpw7jHZ+hqygGvfkTgakBGmLDSHBOBuLd3lM3pci3IkdDTATJXYCuw4/j1t6l6Di5H576EgTYCUOygcLnOZNgjDzWg4DJCULgOfv9qGnyo+h2ADebAyhq8qOs0Y/y2wGU3g6gpEENvn4kR4NPzrvsdgAyeD2NJoobAyi2rqmi0YeGLi8GPEF4aI+wclaqTxUwvSLRaL9QIj8MMLV+JozpRkDcRWoxdt9YGYbvvIfO68+rMGSeYsswKCPENMGnwXk3IN5tn+iiilkl1n72cfR/twRtp+MwXHwcvoHbME0C02tlf89iFpDVLVmDcwJjBtViTSy7HXT7UVTlQfYPfTicO4BD3wzh8Ne9+Ph0L47mDuHj3BEcPj2Iw6cH8HHuII5wnHqUxgCOnHbi41M8f5eMI6f6cfh0Lw6f7sfh3EF8nDuAT7/uwdeXhtDQE8CIl9lnHulYTCOapDYBmJOicA9gTD5kPvBIJvJK0ZlEULju4MhVDDSkouPq07MCTIp68Xtaumdv3jx0Fy6FsygFnu6fYfraYQS5xNyoiArVonni7ItkvN/3mvF2ZeUrlYH6ETOslNeC+whM55CB7/JHsPvgHWxNa0ZyRitSMpqxLb0F29I6sTWtCykZbUjJuIOt6a3Ykt6GlPSOR2ZsSe/AFp57WptcC69nS3qLXCOvST5Pu4MX9zYi4/NuXKv1YmCMOrfXKhkJi3IGbGSCPzQwhS1pNKiwHutk/H4XvK5z6K1+Ge2Fi0DQKENmMmtahs3dGPE++wSUWg+1wppdhfPQfm0Z+hteg+G+Cn+wT2qv2TqbKXh/HDBVcq7XDKJ7yItvCjzYebAdSemdSEjrQ1J6L5LT+pCcOoik1EEkpvchIaMHSWm9SEzvR2L6wCM0eL69SEobQHLqsIyktD4kZvQgMd2J5PQBJKU6kZzRgdcP9eCXYjecwyzp5iRmBC4MTBKcBqaa7IpUpsSY/AGd0vJDqz83C88CZh+8g9/CWZmIjoInVEKwZfjcU5TfB4ghXdT6TgiYVkiTumZn4Xx0FD2L4fa34BuvkGYAouuydJjMxaTeWTOA7sWY6obzHlGX6hkycLpgFDsPtSMpoxuJ6S4kpg8iKc2FpNRRJKWPIiFjCAl7+ywwDiIxw/WIjQEkpY8gKW0MSWluub7EjH4kZgwgKYP7+Xk3XvmgG2euuNAxxHIPEhvv1SRgWj5m4kuDcwrAZLEWzX4NTMt1FPDC9LdjvC8LzrK16M5bMKNsGQnSkHVfMBddhY+ju9iO8Z5P4B9vRsAXjkjpAMB/F5jKPcUSYNGbAkH0uPw4XTiMnYdakZTWJQ8wkaBMI7u4BZiJBGZGvwJrmgIuwfvIDAIwbRRJqWMyZPJx315eJ/cPIjG1Cy+/04WTFwbR0mcBUxgyDEylClk5FxpjD+6PSR2KojsSmPTbUecch89oxGjXp3AWx6Ivb34EMB9OdEeCMfJ1HzPhC+ZLPL0nfyEGyjbA038apqdPGlApQFrJv5Osu5kFKUGo/G56Zqv3yodJYHoCQXS7THyTP4pdH7YjJa3HengjSE4dQcoet7CmZtGUVLfs1yLx0dgSfIMyyVJSx5Es4By2JtmIXC+vNWm3Ey/u78JXP/bhdg8L5jRjqgpUrh0asshptYv+ru7vAxiTB1JMKd5+MesJTHr+R+Ez6lQ15E07+i/NF99lJKDu/jpS/5wagBmy7C9Q5Rk9hVEYrH4R3uFzCBgjVtkE9RKKcnW+MwvGSEPqwcAct4D5bb4bb3zYgZTdTiQJ+MiWLqTs4YPTD5HvxxEGpwIvH+qffZARk1NH1fnvIWuqa0oUqaCvqR/b3u7CZ2ecqO3QKYhq8TFKYKm90q6i3wdM6gdWpwiW6Xqr4Gp5H87r0VINqfTKe4EtEpD69b2+O2m/ZCPNRe+Feei5shxDt3fCcBfCND2SrMFZFxCrPBJEs/H63sBklIeMKcAcNvFNwZgAM1mASdFG/ZLGAnVNZehQ50zZ7VHinQzzyAyCUBk+nFQpZEytjqS5kEy9k7p0ah+S97bhUG4HKu4EMCaSVunpJLoZA6Z0ihDllT47F4zxcriaD8D56wsYuKAyiO7OkgSaBmPkdhIAH2AYEZjOa89i6E4avN4b4rtk/Y4klARdITE7e4ypxAyPP1mUm1bUJwTMy27s+qgdyandSEwdQSKNgbR+JKXSoqUFqwwfMiYfIpnmURlixKVTP9ZWOc9/ADR+EmiRp7tBnToxzYnEjBa8e6IVxbf9GJWWNQQmnxkH7QOrzMWSzPrZPVCUk3LVl5WSr8SliYA5CN/YTQw1pKH31+dE/5seY04dlDp/s//iXPRcewHDrQfh81SLnqsy0nV7lTBw9AXO6DZCf50MTLJ2WMf04UzhKP59sA3J6T0CTKU7Ujcbsaz0fiQKUEdlHw2jR26EGD7yGniNHHQZ9SMxtQdvfdmJX2u9cPuIIVbUslEYAUodU+mW3Be+pw9YHIBf5M0OAZN1y4JsArMfvrFrGLq9Gz1XV6D/0oMYc+pAnMy6Kq4+F/2X5qLnhg0j7Z/AbzQoYIbaa/M8CcxZBOd0gJk/ooBJ357ojNrfR6tcMSiBmZhG18qjCMphS/WgyCYwI8Gp1BUCMym1F3u/6EbhLQ+GvQQlKyA4iWmnKGCGxbrG2kMAU+p8GJc2+8TBPVC3C91XnhHQ3J8xZwKY89BbFAN356fwG00hxlQX+jcw/+sAn8CY9wJmHzI+60ZehQdDHrWIgmqES88OGVQxpkrmmClgjl1GX91OdF55OiKr6OEBOJkp9Xta5fRlsvyirygWY12fw+9TwFRpVUqM/s2YfxDz3pcx+5H2aQ8ulnkxOM7oj5LCIolZbSBSiO5Iyx9tSejp6ZgUm1KawATcXhhjV9BbS2AujzBu/kvAtBjzb2D+QWCMVD9+A0zl56QXguJ8z8fd+KWI8XK1yC1BORmYqhVk2N33QGCGFVJGfCKAGSAwLwswO64sF0ZTcfLZAuY80WMVY34Gv68RgeB4hM6iRXlYHMyo4SPO4fCxw/eFOi1F0iTj56+uY4qBQwBauqboyhH6suUeIzDfPNSFs9c96Bt5ADCt0h0+t4cCprTuM3thuC+jr34nOn99etaB2ZunRLnomF1H4fc1iO9S1R+pcOCMAzFk+FmA/Nv4iTDUrNh/iDkJyonApM82WYDZjZ+vedA7zNXi7i7KhTF/PzDZD1xZ5f0Nb6Lz1xVw5ik9UOuFM7mVWDnzPC/Og/OGDaMdR+A36hEIjEgKnk7fn/XIz9/AfDAwaRAJi7okmEBw7j7Ug7PXvQLMCTqmdNFTkk5KYnh/rXv8kIzJ2pVB+MZvYKAxFZ3XnkPPpVkEJrOL8uZIdw/n9ZXix/QbtWCTWMly+m911/gbmJOAGcmaBCRdR2Fg6mhX6hEnLhQb6B8JwG8yQsaoD1VDZfAot6SVxT59YKrULvoxqbiaARd8niIMNWWg69q/0EOLObKo7AFRnGkxKrt4sMKSfsxfn4frznvwe29J9ImJzHTUis4XIQpmRaz/Dcy7AJPgpAE2GZjUPVUYNv1oP/JK/Rh0E5jUxbWDnUnCKqVSATWswz+QMVXkhwq+ipMrdFvA9LItzD50X38B3RdnD5hSlEbGvDgHnVeeRV/jfnjHygSYrCNRGVBWY4MI8Mw4OCOO/bfxQ0DqcX9g7v10AAXlJlxjXGaHjWUJTpLJXYA5VcakzGdsk0P8hDoQHxiF39MEV8tRdN9wgMYJWZBlunpMhRUlqiOJwFaduTRHsOrQrVp06dhxcY701uwpXIr+uu0w3OcRMAeELTkDVa27lQ092WiZjfchkCqrXLGAlcQx5Mc3l0ex69AdJKe3IZHMwWiPJAwzZs4sdrLJMBLT+VCt6IkkPszca8n+YaqdJFowvW7UyjZn/idj2ZarSbLqeV7W+wdudchR5ZfyuLwmlYnfj6R0FeVKoeW+pxt7P+/ClSrW/ajlCJWD3RLlVkkF7194sk/BKtfADMUypdMFQ5Nu+L2dGGk/ge6iePROU4wTvATub4BpJXvoOnQ2TuBgb82Bi/PQXbAIfdWb4R0+Db+/B5I8Ib5Vj6p1lwkUFgkzyZqhG0dQ6iE5hNYiUcwuktIKAtONXQebkZLWqoCZMaIy1NP6LaOAD2/UAqYO7810hpESp+EUOuVfVGUcBJICoir3eBhgMj1vTGVHScYUE1NYRmIBUzKpOrH/q05crw9glMuDa1WQz4lLxrB5ruzTfe9VSPmBolwegMWY8mCkYJ007IZpdGGsOwfOkrXokWTe6fswJwBzQgaSYl5272DkR45/aR468p5Ed+lqjPV9CdPXKuvd+GXWWd1C/mBgqtIKv9T87Dp4B1vS2hRLpasYuUp9G0aKsBezcAgOikQCY2YHGSxhb79kyms2C28tYAqjEmBTZUt+TzPmZGAyc4pZRzqfdAApad14P8uJksaA1KGHbBRiigtlWXaBknpkzWkBU3VMCAFTCtLc8Pu64en7Fr0Vm9BZMF8ANBXxPfk7qhJSW/U6LS6sEnQXzkUH22bnzUNX3gJ0Fa3EcAcNoBoEzDGYcnHKOJvNmp/7MyZXi1A1P91DPnxd6MW/P2IGeyeS9lDUjav6GAEkWYbpbmNIFBGvHzYf+MwNMmLC3hEk7B2SWhwFygErvY6JJATQKFIscD6cKNeMSaDz2PRdct8okvcMYEt6Nw6e6kN5cwDj7Nwi7Kg6dEijiJkApohFWW6ELWLckmHkHTqL/qoX0VH4JHqFNTXApsee4qsMMebE3zoL56CngCJ9LvouzUPPr09jsGkXjNHrCPiHVHtBWR7F0oNnQ6e0kg1CqkGEjqnyC5WTP1SMVujBzo/Ilm1I2kOdclTlZYpuqfTIxNRhJLBCkvpZqmvGh8r6GbOOr3JBqdtK3RFrj2hJW1WO02dMXhOBrXRXpWMOSh6mAHOPG8m7+/Hivm58cqYf1e0BsIJUVniTkCSJxGJMsczDbMl7PEVRbnVM4wOPACZdRsZwAfrrdqL9cpRapUK3holoVDCZIX+bNDwRiKJ7StmuBXJmsF96DGxtyKYHnZej0FW9FW7XLzB93VblHdULJQZC4JlxgKpsmInH571RVibdaLz5vSzfvTKMXYdvY2v6bWHNlPQepGR0IzmDNeVOGcl7u5C0rxXc6n0zud2S1o8tLOdI71Y166xn3zMgdUcElEpMphqhDLGpM6alfoSASfYlY3KCEazjSNkzipTdvXjprU588cOA1PxIfDzUBpLGTyQwJz67hwKmCgN64QuMwOe+gaGmfei4ukIaHtA6F/azel1Sh5TuGyG/phbVkdu7ATNspbvyCMrHMHR+DvouzENzwSLUFK9Dj/NreIwW0TP1QqXhxObZMIDuxsgqr9Aviz+phgdDwwbOlwzi/cx67DlYjd0fNWP34Va8cbgJbxxuxBuHWtU43Ixdh+vV/kMteGOGx5sH27Hnwy68+RH/sxE7P2jF9rf7sEVChcyYZ4lHP5IyCDTLMf5Ai5zfDQNTsTK9CzwWAU7VwIvk3fQGdGP7gQ5kXxjCnX424VI15XxG1ClVzyf1nJiTqewZ9f4hgKlSlFjO4GOrGM8tjLQeQecNh+h/tM4lTU0YU7UXnNgWhp3gLPCGRLcGKUE88fdcioUtstmrve/SAjQUPIkrl6Lw7fmVuFJ7GJ3DVfAGx1Xrbb340owzpQb5PYBp9eDhzWXIbcxr4o7TQFHNCK6WjaOgxEB+mYFLZR4ZeWU+cThfKvXhUtn47I1SDy5xVAzjXMUoTl314L3scby4jwVyqskCVYlwfbgG3VS2CoRhYPJ4SmVJSfUgZc+wSIrX3m/HmaujUlfOhVlp7BCYKoPdo0orRE2yIj/Ws5sCMEmxliinXiUHpntELQ3HbsLjXdlwlmxAV/7jSs+koaJFuW5WIAVlZMaJwJysW9KZroFNULK/ZmfhXLRcXoDqgsX45VIUPv1+MfacXI6j+XtQ3PkrXKYLhkwUllhMFAkTxa4G2MNu7wZM+nmpRqgWiGw1yPXOR71+uNwBDA4H0TcURN9wEL3DQThHgnByy+FS+3pHgpitwf/p9njR7DZxrTWAI9+N4cV9HUhM7RWDSOm41DVZUDYVQEZ8R/tdpRDNAmYai9MoygfEI7HrcDvOlxtwjlINVMCkEcnlBgNBDUylDoVdcFPRMcX9Yjk/JwBTFbCbRjs8ff/BQOU2dBc8IcCkEURQhV1BVv8hEeeTgMnvhZgzgjHZW1PcRHPReHUBin59Ct+ffxrv/WcZXjq5BGuPPYPt37yM/9SdRZe33wKmqieZWTBqEBPwd3fgK2Dyv1WGtspZNcTHSo8B+4gqVUO1CKeuRWbl99jwlL9jouzMDy5zw9Xg3OgP+FHSaeLDUwPYmtGGxD30ObJ4jO4d5SifFjAt/VIxJvVLxcDJ6TSGxpC8pw9b0u8g7YsuXL0dwMA4gcneRZoxLWAKvixgWhY6n9+DGdMCpjzsEDCJeDVMfy+M4Ytw1b2OnssLpXGrk41ZpwpMy1iKLMsQxmRPzMJ56CmYi+KC+cg99yT2n4pCctZSxGY9C9tJO9ZmbsGRX3NQ098MI8AFC2bTAJoEzJBVrhlT9XSiw59go0TRAOS9Ux3yuCAWe4uq3E3lfuJDUQ+LIm4mh/gIfaoPpdMbxJV6L9I+bsfW1F6xqOlOEh2Tljrr3afBmMoaZ/MGRrRYIamAnpxONxH1zF68uO8ODmT3o7Q9AJeXk9AjDnVeI6tbhTEfHpi8qWoocPLhqzV+5IZLtWQRhlo/QteN5egueBy9LExjthHFuNUMS4tssmlP4Tyw97romtIKe550F+YCAfx+F0X3lQWovfIUrl5YiC9+XIxdp5ci8fhyxJ/4J2xZ0bCdjIfjxHq89vNefN+UB6d/CD46/yWSoJhNPXA+eGtGWjchUmTINU1ZJ727mqAWeWU0THcVJgtyKKApYBK4qhMzP1OgJBurY+p7/KCtPqb6vWo+ISWwE0CtWFgSmE21rEyzK4Az1z3YfqBRQCNhRCuUqCoaaZ1HiOn7vU5lgMDqKDIheWMQSRnal+nE9rfb8em3o2hyKh/mxGwi3gOr05vcg+kaPxYoeSOUyGE2D/uxq3pg1pf7jToMOHPRWRaNjkKuWrEAgxdUR2ANTIKQ7avZf727cB6GuHIFFw8onAd2cKMTvadwDuizbLkyHyVXFuKn/OU48t1yvHzyWaw+8S/EnHgB9mwHbNlxsGXHw5YZj/Vfb8H7RZ/h1nijdLAN+niBjAIxxKWTUvmaN4GD/jMVBou0AqcHUC3e1fZu/cd/z/Hu91v1HKz/l3xGK7AgYNcTQuUOkKVpcLDLb2lbAJ/+OIyUvbeRzE5sWhSznl0YT4n0KYFTgMmggRXrF52STnU2BnMq9SC1G68f6MDpc+NwDqnkDX2fZKJKN5e7T3R+PgVRbt18Aaa6YAJUF6oHgiMwzWa4h8/CWbMB7ZeXwHnpcVkzksunaIs85PKh2+fSY7IQVW/hYwJGMqjSSwnS+agseBxnzj2Jt88sFtG9+tgKOI6/AFu2HbaTqxCdEw9bzirYslchLnM9XvtpD8625KHPOyDxcs5M3YCA4pSKNqvw1AxVJaOame4Hgj/jZ+HzpiEWBqU87AgSUUxMPdeLfm8QeZUm3jrWiaT0RiSlsp+SdrSzWYHSEacESjJpqPUgk0H4nqCkKsBub71IYCOEtC7sPtyFc9cNDLqVLi36tBmWKnx/r3s8LWBSJOosHsY8qcNQbzD/bye83qsYaH4dHb8+i+68xzHIldGsJA29agUBKf7IC49hgKvyXpmDXm6t9oK38x/HzUsLkf3jQqR/vQibs5chNvtfcGTbYM+JQXTuKqzkIDhProItJx7246uQkLsFB698jKqhKgwHXZZ+p1q2iJ4XmlTaelafkVHvdWP+vPv5MC1QcivMow0pPo+wNKDB5TENtPQHcPqiF6+914LE9FbVxzIUOrTau0icfoqiXMKmjPJw8DeMItGP2YekvWxy4BJX0f4vu3DtthfDnonAZOpbJHve7V4/GJgWqvVMJesw00geqtwEtinsh9+sxEjn++gujkNXvlqyjxGcHgEd9UqVysb1f4YuWCtaXObKFXPQcWU+qgsex8WLC/HZD4ux6zHxSAAAIABJREFUM3cpNmQ+A8eJ52HLccB2Mk6AuPLUGqw8tRYrc1djZfYq2AnOE/FYnbkB28+8jv80fI87nhaMBb2iXBOUyvK1boycN40SZXw8msAMg1IRhU7cDl+rGD0mC79MuLx+lNQHcCRnGNuYgpfehcS9bLDKCkYyHWP2ZLvpZReJ+BeAWvXkYpXTABpE0u4RvLS3E0dO96K21ys96TUQJR9zRoApszIszpVrRAGTs5PNpMwgV7JohKc/G72VyegqjEL/JZUVRP2x7fJ8tF9W4BTX0CW2LJwPZ+F8tBfOR9XlBfj50pP44IdF2JK7HHGZL8CWFYvorHjYOHJWKbY8tRoEZ3TuGkuUq8/JmmuOb8beiwdwpec6en0ujAV94jmQBA+6IcQVoYygyYbJ3Wbsn3cfgcmh9WcLmCLNaIAp8U5DjHH7jhET3+d7kHawF8lvsIlsLxL2sqeQAqZEacQImj4wVR6p6vQm/ZjYkyltGClvuvHagS5knRtEp9eAN0Kf1OKc5/87RflEj7x2JIuvzop7mkEvzP/bBcNdgKHGNJVlzvxJ8Wcq46bnslqWT6zzvPlw5i/AnYInUFKwEKfOLUTGNwuxOWcJYnKeR/TJeKw8uQa27LWwZ66CXcAZL+CkOKeeSf3SnrUKduqaWWtgP7YOCadewudl2ageuo2h4Cg8ZHdL5VAGDw2jickCf14A3kPN0KJ6AjCVhWsGPGL5q6hcAH2eIIqbDBzOcWL73m6k7KZOOICEDNVem/7GlD1eyQSaHmMOSxgzOX0MjPJQvwx1E04bxZY3XMg47MTP10bQHyQwWbz4YPEd+SweIMqpzyhjIWzBaj1NZSMLQMVBTOu8BiOdn8NZtFYMILUsn7VOeeEcpVdKJGc+agueQMHFhTj+4yLsyl2CjdnPIDZ7JWwnHYjOiY0wcNYoAGbFKZGeSwaNh53AzF4NW/ZqrMxcDVvmWsRlbsLrP6bjTM3PaPS1wRWk35AMYjGmdH5QepkC6j0e/p9Z99TXYiXcKh2az4SgZGiWakwAI2YQjdQtC11486NWbGUD2d1WFj1bUqezU5vlDBdRPg13EfXKDGbDsw+mR9LmyMBs103DaFuqE4eyB3CjzouRoAEjwo0WCb77vZ4eMHlTLOtWxCG9+OLJ54zlOo498DANrvpVdBdQnM+ThUxd+VzQ9DHxa7ZdnoeawgU4e+lJfPz9U3gtezHWnPgXHFnxiM5ZrUCXZVduoZw4rMxdK8B0ZGpgcktgcqxGNEfOGkTnrBNwrstKxr6L7+Ni1xW0mV0Yl1U3CMbIYfnM5HoeMXBOAiY9DjRI2eGZ4OR6R2PBIHq8QRTUevFuVg9e3NuEZIYgxRmu3ENkSOUyYgoeEzqmB8zEdP6OjEvWdCEpgzmfBOYgtr/VhuyzQ2jqYbNW1URL65j3A2PkZ9MCJnVKOonVYGMtK79ORDqTOtzwjZdiuOUjdF59AT15C2TFXZesVa6c5sVXFuK7809g35knkHJyMeKPPyO6ZPTJjeCgiHYIMG2wnYzBylOKFR1ZtMQpzuNlK8DkvuxVsNEookjPWYXYzLXYdHIrPrj2Ma4NFKMvOCB9NOkuUn5Y6mePODAllKl1TKomBKYHpslnEMSgGURVTwCf/9SLlw+0IDGtBQmpTil5UAkbquY7xcoyYtrbtIGZoXIx2SE5hQkhwsJMe+vFm4db8PP1ITjdQWFL2iGzCkxlQNB5ba0QYQFTjKAgF6/3wm/ehqcvG71lG9F+eZE4052FTFV7HFfzFiHzbBT2nF6IjSeXIfbkc7DnrEQ0rW4aNKfWI5q6JXXIk3Gw5cYiOjdWwCoim66iU8oQEj9mlgKjuJH4/RyHMGnMiXVIObUdXxVn4dZADYZNl7XkCg2iiESPR5IxOan4oHX4kqoKn4cBk8vleYNo6gvguyuDSD3aIPmfiRndSEhn0saQ+B2ZFEyWS9nDbHMaPSqXcsp+TDrW99KSZ0/5QaSkOtXyMOn9SN7bgw9ynbhxe1yWK4z0ikQy4oNeP4AxKeaUBRjS08TqY6G6pbtZs9cMcN1Atp7ulOTh4YYMtF5/AbcLF6Lq8uO4eP4pHP1+KV4//TTWZC2DI8fSJ0/GKJ9kLhlxtQBUfJQCznjYTsYqCzyHn61CdCQwyZLapylGUSyis2NEHYg7QRfSGzhRegrVrtsYCNBSp/6lYth0f024OQTp5GE5rOlWmm3XUtgdFw4B630TztMK34n0CnkbfJKsQVC2DAZwoczE/i9b8eK+ZiSm0lKmTsmhM8xVsRgjNar1tto/HWAqHZOgZHFdr2SuJ6X346V3OpB5gYnB1C25nr11Xyff7we8nwIwww9Q07HeRt4wBcxxBEwX/ONN8HR/i8bSZNy8vAI/5C/Ce98uxrasFYg78QJW5jKCY0VvLBEsDDgTr0/FIfqUAyuzYhCXtR4vfrcTxypPoWpEgdMQka7Zxro2DUj9oPVWVBctMiO++4CbGnlfpvqaINQTQG81MLmV48j56C4W1kNn5pJpYjwQQNtIEHnVXryXzczxLmFDKR2+X9z7YT+T2qUBbGGfdSn/dSMlow+7P23HxfJB9I1YLayNPxiYBCvrhVmSaRoDGB8tQlXTe8i5FIeM04uw5XgU1hz7J2JpxMwEAO91jFyqALTs42DLXIPYrzbhpW9241jZ1ygfrMVgYFjEuhhv4oPVfsCIRJUIIExgUb1/prcMYkQOndQg2zAow+dCT4lHWuRwwdnxgB/do0FcvuXHoVwnXn6rGcmpXUimiLZqiTQbJk87U/3u0SDWK/H4KXTM8z/29OOlA1049E0/brWZUqork0mig+HIjyY1bu83aafFmPc7ED+jeJEwpenFmNGOWz0/4vDFHUg6/jxWH3sesZkOsbDpn5w9cMbDTjamoUQdNHMd4k8k4uUzu/FVaS5KnJXo9fVjXFYQNkLtSpiKptLROMEYQLBunGbTB9zIB90bdX/uZQRQXSLYqB7xtWWg6XOInAhkcz8/98AfHIU7YKB9JIjCSh8+Pj2AVw+wMrMLiXtohStg0urWwJzw+mHZkjomV3KTUophAT+XJtx1pB1fXxmRbHUvmdyKEIYYP/I6HvB6RoEZirIETHiDI2hw1+LzG58hISsJjuMEihqzCUw63OnjZKKH6KS5axCdtRZxJzbjxa934eNfv8LN7hJ0ervgFj8nDSJlFKkcSg1QK7oVuoH3n+EPAmYkU/yWLSKAKaC0gMlJEZGYIXou9/lUFpE7EETrcAD5tzw4mNuNV99pRfKeTlm2JUFKJ5RfMQRKAsrqABK5b/qvmUXE2LiOk7uw5a1mvJvTjmv1XtVxQ86dVQ50JVqsP43tjAKTzl4VEvMiYI5i0BzChaYrePPn/Yg9sV6MElrZdh29uZc4/j376W7Kpl9TGUq04l+gwZS1BrHHNiEp+xV8UPAxLrTlo9XXIQYbndJ0uSjW0hGKsG6pk6Kpqqhwptr+FmD3fgD3AyYnBHVfGmZ6cihVI/IcqFuq5BMaFSNGEA3OAM7dNPHuiR689HYTktPYjqYXSRabSRXkJFE+fRBGsG2IYS1gSmubMTGwXv2oCScv9qOVRWc+Sk5OZFNyFh7GcJxxYPLhsn0MjSBPYAS33XdwvPIbJJ7aipjMOEQzn1Isbiu0+HtAeLffZq+GPUvF0sXneSoOK0/F44WsONiz1iL22EZsyNyKnT/tRXb1d6gZvI2eQD9GhD3pdvEj6OewlPeI0J82SiaAk4wQ4afTrx/EoJGfU3VgRreoEpYrSOuTyi2kDB4CdyToQYfPjbJON07mOZH+aTO2UadM75a0M9UwQblyRGxHivEQsO4GtunsIzCHkGitVJGc1oH9x1rwa60HQ2Nho4zXqDLV7z1hI+9D5OtZAKaKArF3Jd1HzqALhb0lyMh/F+tzEyQbyJa1DjaJ8ig/5Mzqm3TIW0kezNukf5N+UhpDZNETq+A4sQGrspPw4g+7cfjacZzrvIwaTyOcwX6MsScTW5dEgjPkM9SWs2JMFp5FOo81KLmNvMmRr/V3IvcpoCum1plBasvjk0kN0YkHvYOodjXgpzs3cOjieez86jwS37mCzXvrrIwhgosZQxwMGRKg0wHcNL4rTbkGZR2j7e+0IPuXPon0GMKWlq1hpRv+4aKckSCZ6ZIp7oE36MdQ0EC9vwsnG37AKz+8KeLUcWJzBHhmGJzi12Rok7qmCl1KxntOLGxWLqft5DqszGKCyCasz30JOy+8jS+rT6Ow9wbueNswFBiCERizmj6xFlrF11WXMorXSSL9LrqTBuD9tiFw6nCpVAWw2ZRaFtFnejEedGMoOIh2TxtutheJAbfr3HvY9FUaVh9+H6s/zMH6965g4/4GazVfBUzVG2kaQJsWgFXokQnHW/c1Y/+Xbfj1lhcD7rAvWBzrcl+0ITc91pxRxlSRIVpjfHCql894MIje4BiKh2pw8NoX2Jz9EhxfbZKMoJllSisKRGDmWsBk9lGWBU6qD0ybo5PecubbctbIecRkbkDiN9uRnvcesmvO4GpvMZoI0CCd8m5hftbQU8eLHAqg93Az3QWsBOLdgEpWZOkHw6Y+ZuMEvRgOjsAZHMBtbyMKeq4hs/I09p17F0m52xF7PEHuYcxXryD2s72IO/IF1nxwARv2VyOB3T3EhcNY+PTi31NmV3HM9yE5vQWvf3QbORf60OIMwEu2lEI8q1CR10vpcx8JEpqck+7XzAIzZEVylnDWK0o3TBPdRj/OteQh7eJ+MCpjz1LgmWlwMmpE4MlxJQOJKXLxIbaUz3KtJOPseKXzZsUjNnMd1uUk46Xv38TbBUeQWXkGeW3XJYWu0+gSkI6bjGaoenpliISZUwre+AAixt1AGLlPJ816gl64g2MYDo5iMOhCm7cL5UN1+KW1EF9WnkJ6/gdI+f51rMlNhiNrgySr2CxXmO3YFjg+T0X8kS+x9oPz2Li/HJv3MUu9Wy0JOC0mnCLD0g21uxsv7W/Geyfbce22D0MsnxCfpR9e0S2p9pgI+L2WC+yPZEyZGZbrg+KJM8ganqAHtWMNyKr9GlvObEds9jorBj5JlFshRgGYNpLuZuTcY98EYPI7TPKgbmkdV1iTgCST5sTDkRsDO8OezPnMXAvH8Y1YfSIZKad3Iu38+/i0OAs/tlzEtb5SNA21oWusF/2GC8MBN0YCYxgLeOGR1C4fjIAPPllyhgstMUte9TSipU2XlLK8yYgGxgIejPrdGPYNo9PnRBP9vsMNuOosxXcN5/HJzRPYdfZtJJzagbisBKzMXBMuK+F1Mf2PE5D38fgWxHyRhvgjn2HNBz9i44EybH6rEQl7CU7Gwi23EXVOGQSg7iqne3NSJ2XGEPeTafkblUHEZa0Vm3K/WruHzcJ2f9yGb6660D4ahMHQowAzYAGT7jbfn4UxqfSTRaxoChlUBhdRN9AbdKFkqA4fX8vBhlNbJAnYwSRfsqcYLGuseHmEyBWxOwm89wDlw7BvdHY8VhKoFnjlYTMun7kajsx1WHUyEUk/voo3Cvbj0+sn8E39T8jvuoaSoSrUjjXijrcd3V4n+n0uuPwjGDXHMB4wrOEVAI4ERqVbSL85iB6jGy2eNtS7G1E5VI2bPcX4sS0Px2rP4J1fP8XrP7+FxFM7sCozCTGZzLZSwYjok7FYyYjWyZhw/oBMNivlLysB9q9eR+wnH2HNhz9gw4FSbNrXbIGTnd4IPG0YEaAaZKoLR3KqB1tkiWruV/H1ZPYgSvUjOc2PJKa5ZfQhIaMTiWlt2PFWG774Tz+qO02M+scQoH7M1XV9Sgf3SQBgPJxrMUlU30uE6/0zK8qtUFqoAIygFHFOsPowGhxDV3AAV7pKkXpxP9ZmJ8B+TOl5TF+zn7Iyi3QVJAFI1pxBIN7rWJpRCVD5DidL5lrYj6+D4/gGrM5KxKYTL2Jr7mt4/Yd07Lv4AQ5d+xzHynNxuvZH/NB0CedbLiOv8wau9JRaowRXuouQ13kNv7Tk44fGX3C69nscq8jF4Wtf4MClj7Dnp7ex/cxuJOXuwLoTW7DqeAJij2+C4/h62E7w3miVR0WzwveDgF2rJrK+R5mb4fjqNcQd/QCrDp/AuvcvYNP+Wmx+i0VobHLApA0CkSzah6S0XsWOkjCs+nUqJmUpb59iT4I5zSu5l0wGSUjvQPLeJhz4yom8Sj+cBl1C4whwBQqypp/AZKKM5Ru21DsNuKluZxyYdH0QmHRKcyvAFJqnr87ASNCNVk8XzjT9hNd/SsOqY5thz1pvMZZy79iz6XOMt8KX/x1g6iylEECpApDFM9fCdnwt7MfWwnZsjQCGmfJrspOwMXcrkk6/gm1ndmL797vx2o/p2HX2Lew+fwB7LryDPRcOYPf5/dh1bh9e+ykN2394E9vOvIakr1/BptxtWJedjNUnNiP22Ho4jrE8ZBXsJyhBWFai8lB/61bj/rVKhOesUyoKUwMlMYb3bQMcx15BzOd7EH/kKNZ+cAHr37mBTW/XIyGDvk5mErEnJwvHnBF6qBuJGWrddNX1mEAmcCm6KdLHJSkkOaMNrx1sxjeXx1DfF4BLnvVouC+RyefOxg5eFbAIeWr+SB3TcqNMACZnjOiZdFj7YQQMuANuEYMnKr7Bi6ffQMzxTSoTXXyOMbBnx8BBh7jU+2jGmGWAah2Ueps2nuhrFSODdUU67W61qtikCsCAQSYrNVfBRlAdXyvdQWIy1yM2awNis9YjJnMdHCe4nwBfjehj8Vh5PB4rT1ghWtGB6WNlOUmsivEzzi8jQmJooHKyiH7OSBqByfOKRfSpaNg4ctkQYg3sJzbD8cW/Effxx1h98DTW0aUk4GTuJLtlWOW2TIeTtLhBJOwbls5vtOaZypaU3oUk6anukkZZyXvYVrAFn3w3gPL2APqMIMaCzDdQ6y3R8KNf108GFWDqzijTAyVZddYYU4tzSewgY4r+waIkNp4ypVisdKAWXxSdRNKpHfIQxQnOG0s9KidO+SE1e2gRO1vbyUYXLXe6nbSY5OenCACm1TEOz+RmLV6Zwmd1B6EHQIyrOESzTkm6hlhbcfhbwGcmvhyDx4uxBo+vxkr5LAKYnCQCTj1ByZoEJ6UNdXMej8AmyDmhNsJ2IgWOYzsQ89lbWHUkE2vfL8Smt+nvZP4kne80apgkTPbsQ2KGihgxT5N5ltKqUD5X2UMv7m3GhyecuFoTkOz0MQmlcj1PtywmxfQ79sD0sz+/7uTGZ/8Q4nzGgRlp/EwAp5XtTscr93uDAfQYLhQ7q3Do6qdIPvUyYjJ5g/XD4UNXFZDyQGYLkJHHvQs45Rx4HjJUvZHkkkoGk4oqqegSDSg1WCxny2aCsx4ESwSIdfaTxYqhkhEBKwGmGJPMTdViol7M/7SSp4U5N0SAk2xOCUOPxwYZFO3249sQ8zn9nV+Jv3PjgWok7Ou2+mJaDVz///au/K2powv/Ya0lCLKKuICt2trlE7eqtSq0trZaKwQIuLRVKC7ggiCWWsS1Fil7RGpYDRAIyV/yfs97zszNTYxP8ROL8vWHeSbL3GXuvPfs5wxzgHZQOWLKBCPcKYsGsVp21ghg3afd2HWkG2ebp/BoWGsR0dKgMQZmhzNZW2YIUOlhicG5fyZQ+G8FV7HhKdm2mrkFZ7J+OkrheQRN/S04cOUg8nwFSPFl4i2m79pIdVIJN3he9ecEcKrMaV4SUco0S1OAZr87wCWIkvwvoLTgdvXOXDhH2wwQzTmtzBt7GaiVk6vwOmTrOVjGJmzdWDWoFBGc/J/XNiYlz9GtWE7WXlKL3M9pUurTXB0Tt8nEMgElc8MFpFR6glKK+6OvOnCi4S909kcwy8ptIjvaBD+litavr2DV+lGiY7ygRr7wrJwk20W26SMlIG10TqyPyC6spJ6UOYdnn6Cxpwm76w8gs3ItllWy2kamloJxFi+RcizUdy5wwrmeAacBprwkFkBKnUTGo5yX0OSciecxHidnrIAxCxI7wPgBNlFsCCjzQjrnUNbPPCihmAJM3jfHEpA2WY95Usak5IwhOBmbmoeU0k1Yfng/Vhw8juz9Lcjb86ewdgZ8FGylSYlVgUewlmxeMiAD2Fzcj6N1ftzpCyE4bXQGq9TY9TZrL6KbWGdMfKlNzXlBcC4wKzdCrgugFpzxFJNVdzVOjykZocgkBqb9qO9pxLbz+5FVUYB3vNmiEIki8gw7SwBSIrBe6HsSYLqPd1GuGFV7FogO2AxA44BJQLqbG8QEoICRMiOb0cgtMHkvzj1Yyp1k/qI4UjtP1Qh+sXdq4ErsxVPZM6Vsg7B29RbVI3dvu5iU1ux4bJQdmpNYGGsQm/f14MgPQ7j55ywCk6wxTypp8r2cWFETtMJ1t4AVIGoGpxb4ejEFaEGBSfYtkSTuGxRvEEEYa7xRdeExooYegjkEo9PomhpATedFbD33OXLJ1lnIQB54koVwg+dlPou85z4/gWGaUCPzX+LL4VAyl1fpmfswbN2OteA0QIsBhtcwFPKZc7jvzY5TKhk7xsivcWIEx/J3m8zHY2j7VPaf4i2A52gR0r4+Iqw9Z+8NrNrdreVjqKlLYf8eHDrxGM23pqRUN6PStW4VZUsbacX105RukSkJTANOrnE4ykIM9AYuIjBJFQlOuQm5QZfv2Bjf5e0RWVTrVZJicqtg+p4nopPoCQ2itqse2xv2IrMyTzVbeeCuBXIoSIyaxC+ya6x7oS0g3CCzv3GcaL0uYBKgbsBQ47aL7xznorhi+zRuUKOdi58+8Ri5vjkXx/G7sHmj7Mj/CXOQeyN46ekxAHPfm3P/VjSgxs7zvhOTM6kQEZgsGMFjvfnwfGfkzi9OI+fzduTt6UH+pwMo2NWLYt9jNN2eweNRDf5lhgLdrCEJOLHApBbO7RLpE48Z2SnSEbwMfll0YL7QW8FJSHicsnTL8ul77pseQEP/Jey5XIyVlevUBihmIz7UTLxD+VMKbLnzzNORWp4OFkbggtDNSUO1Gqspg9HXrP5mDfKwIEsAgBvI/+TnZGBMdn1LfWV8TN51ixk2PoCAl7nKWM43Tco5irWAv1XmYlnZGqSUvQfP9zuQ9rUPWfvO493iVnzJNInb0wLKEDcnpUeHFeSidC/TTumOOVVXdLL1jx83f6q5oKw82Y09/zcVji1LYM+xLNo1GZ1Az0wPLg42Yn/Tl1h9agOWU/Mss96QGPsUc4p58FJgi4spDz0GTrJmBWbMB+9QvmSL/zr/xrnZJveZDJx82ZQSy/ORcWpfJTgZH6AchgoX7Z1UigqRfngv1h6uRPHpNly9O43Bsahss8eIKLJnauKqK5A9u4E5f8A9Hw/x51hEYGoAqTUrCTBFNqV3iCFgo/BH/Wh63IKS1m9QWPOBhMup/5iLk6GFtUghmXxWReqZEV8QwVSEsxTEUUAMkBWcrwnFnPfLYFi/Mz4RmGY+iXO0YgaPo/IlsmaWxgN4s5BWlo+15VtxoOEn1Hd0o3+SXh3KiHQtkk2r7KhaN01BSxaYKoOoOUnzZpjAFJkNIxKmMM1wsiCezAVwfaQV390pw4YzH2FFZT6WlWVimTddXZZ0CRKY1Rl460QG3mYTz4yhCnELEqO08VTnTQJnIjB57xacrnk4wDTGfQEyrQkM/KCdk7Ko+ufTvVlYd7IAX109iKZHv6E/PI6gxFTSgzOGCF2OjB5yvDj/B8AkxaTcQm1PUgrCYURmZxEJa9kTxjAOzwVwf/weTv5Rg6L6z5BzvBAesfvRM0Rg0lNiysccJ+VU74mAjyzNDU5LaeLYoWtB7f9vcm/nJn3M7+5wDAJZYk+zkVGahw9qP8a3bd+h7UkbHs2MYEIi9VmR2GxmS0+OYeea976UgUnWYMxLqs3TdGQS/iX3xZgdpNRhGE/D4+ia7MXZvkvYd/0b5J/aiLSqPFFyJF+dPmm6BI3AHyf0W2DanqCzi/cmA/B5927m5n4W1s0p7s/yFVjuzUWebz221O1Gxb1TuDlxF8NzI5ii/9uUl6RsqTX3ycFMQQspyLDUgekCp9rHqBAZm5eRaYR9mCh4Us9Hs0O4PtKGI7crsbGuCJnVq9XeydIzjPZh4ASDfu2icZH42YKSPb8vRWAmzImlGVlf9C2jyTOghOGE6eXZWHtiI/ZcKsHZvkY8CPVjWHKbZmTHNnE3ym5uNAlRzmRTxUeVHlpUlqqMSeDZJpSThlqzuZVjvDUF72nYJTjD9DzMSDT4g4kO1HSfx56mEqw5tRGppUyLYNR5JjzMgGTolzGQOyC14EwErf2+kL0Bg1Ctv/msIsf8xQl7Tuc4C0jTy6YJjML30a2rEUh8JqmlGciWqstbcLS9HM2BNvSFAxiXKCGCMKiKjpjx6LWhjZLFGJjzrsBUO/WrBSU56SJq5S5gCkBpz9T66FZTVxav4KRfXTwKYW5mNItgeAL90wNoGvwFpber8cm5T7HKtx4rSlci9VgWUhncW5Fl4jwNhSTwLMXkZy7kQoLRdS4Lnvn0L3Ifej4qMS5jPOfBGFI7H2uMlxr2DBzOQWZpPgqr3kfxlYOoeXgOt8cfYGhuFE8lX4lxlAQm7ZMmMki8OczcJDitmUg3g5ivyedlxi0aMAk+x0RkQUdbmUMtKd8oWJmWIdWArQAu8Z0RzIRnMBIelfyZut5LKGk5jE2ntyC3Yq1U3BAFyZfl2hfo1QExEeAWOPPpHUC5gJ14PvtdzldtffUWnOosIKUUj44JbvaUZyG9PA/5vndRVLcbpb9Wo8V/EwMzrDwSwnSEVVNoo1TFk+KUExkkxWB1a0YLTK6HkwVqPXyvqF80YFpqKG8VgUmwOeYIsgrKmpRlKGhPC4vR3Gt1hTmy51xU6qwPRUfRPtmB43+ewc7mfVjz0yakVa2SmkVvMdrcsDm7wK+6nw8g7Zj/GZiO751pyBqovKxcI+Tp+co6vgobajejpPVbnPNmAZOjAAAH5ElEQVQ3omN6AKNzzOY03EfEI5roWGuKu6hZBSemeMb83uRwBCYVVOoC8Qbxhf6+aMAULc89OT4sNuc3gtM2glTZvFBZjnGN55vOlNjxuSD8oUHcGr2LHx/UYe/lr/FeTRGyqgvhqVwp5WGWlTNlYzk83hR4vKmyH6Wk7tIWKlXiSIUsRaJfmjZCd9BEEpuhEQvigGargEhpGipkNmiYIWm2eTQVwglPU4ouFet4TikQtkLttWXc1FW3kCGQRY6sSkMKy99UpILz8ngzkebNQ25FIT6o3Y4vWw6jvrMBvwc7MDj7GOORp7IRLLepdggBLSCknCLfu5//8z7bNXne/wvz+6IBMwbAl5tIYgEBxneOR8bQN+lH61A7Tj6ow76mQ9hUW4S844VYUbkSqUzN9aZBdsIwpRHpprMpvMouDZs0AInT6t1yqg3QiOsTrQDKah03qEQ0mZpKEl+Z8L8BOqm6uFl5PakqYmVk416sSIennMUaMpDpy5Mkt0/qduGrlmOo7bqIW6P3MDj9CBPRcUybeqBC9QhMGwUkIpWxIztE4eXWZCHW9o0GphuU9mGQetKsxOoW49Fx+EN+tAVuoeZhHb765Qg+Orsdq05tQHpVPjy+HKFKagdVExNZ/ttMeRCbqPWyWD9zooxqAGWoo62VxF5SaxlVLs14WuhtqcqW5nhgmAohkUikqCZ1gyxa3KuaACf7Z8o+mvyuFNvjy0ZaRS6yfatR+MP72Fb/GY785kV9byPujz3E45khmT8BycaNG8TqYeV0F8eJcabFB6RdxzcamHYStlegmocr8tCsbDMyFR4TynFv7Hc0DF5D2R8/YmfzQayvLULuiQKkl6+EpywbKcxkLGctTcpsJn/HCcDV5LM4Q7WL8gmoJCHNJp4RQJr77fRO2q2acCTlgS+HyL+WgtJrpVFB+pIQjNl4m0pcZbaUiMmozEf+yfewuW4bilu+xanOOjQN3cCDp92yXSE3NpVqdUz8kyxGZjLqbh0iR1rF0xGJyM6N/fg1oZpLD5gmCkaDDlTjZDL+TGQa45FxDM49Qcd0L1r+uoWfuy/h+zsV2Hu5BB/VbpctWLK9a5BGk1NZFt7xsiJHDKgKFN39l58dli9AiiWRaeqt8UJZpcsx5Vg2T0ppA5LdW10zyjwTKcxnL81C6rFcKYKQ4ytEwU+bseXCbpS0HELl/ZM433dJKoJ0h/wYmhuTXciY5BcmNXRYtXrUdM9Pl9nHglPGanU5+4K/Dv3SA6ZLs7QKFk1T6sGgsVhrB02FJzE8M4yHU5247m/Fzx0XUPZbFQ5cOSRuuo1nirD65CbkVBdI4EhaRR48ldlIER+9RuWwjIxmcGqar1V+tOeOwculaRS5sn2W4bbyouTNM3eefuvybCyvWCnXyvYVYJXvXaw/8SE+qdmJzxpKcOjaUVTdOYUL3RfRPnwLvaFePIkE8DQalN3HuE2fzalyLB4WnOxNjc9Z11Z/Yix3zEWvXtN+EcAvOWCSVVm7my6URsfzN9HoSSFmI4jM0ExCj8aslP1jReEn0TE8DPVJYasznQ34vv0Eiq8dxo76A/iwdicKT2+Wyht5VeuRVbEOGWWrkFaWh+XeldI83hwBWEo54xxJGbk7sGrVnooMpFZQLsyRtsKXh6zq1cg+vgb5xzeg8MSH2HS6CEVn92Bf49c40urFqXs1uNLTjLsj9zEQ6sdoNIBglJtpBTUcbY4R4ybqx8RKcs701LD6sESOG48ZKaj72Sh4jV3S2DFfBDiveuySAyZ9uaSO2tTm6RjzrfzkYnVcLP7PCKdQdE48IYHoOAbDw+idGURnqA+3Rx+g2X8DNX+ex8n7Z1B2sxrftBzDF1e/wd6GL7Drwn5sO/8ZtpzdjU9+3ikbrX5Yu13Eg49rd+A/tTuxtW43dpz7HLsuHMDei1+i+Oq3OHT9GI7eqkL1ndOo7biAy/3NuBFox72JDnSFeuGfHUQgMiJKDAu4ktpr1TjKiywoq4WspNKJAzytMEfZUuzAlmqaVAflHjrnZKa3Vw24+Z5/SQJTc0wozNPmFm8f5WJwcSxVZeCr5EMbgPJ3Uhtq9rSNssTg00gQI6FRPAo9Qu9UPzqfduH30Q6hZDcDd/DrUBuuDbai0X8NF/sbUd9zGQ3djbjU1YzLXddwtecXXBu4gVZ/O9oe38XtwO+4N9yBP0Y70RUcQH/Qj8GpQQRmAhiLUFYMYjI6reUNDRgFiCaYglSRc3DkSAO+2EvJuZuAGL6EbOaltOKNu7f/vU79kgSmY/4QzZzsKrY4FpRcXILQAa5dPDtWenusukY1oEHrXBK03NmXAApGg0LVCKqRyAiG54YxGh7D2Mw4xkITGA89RVDKE4YkCMXZncK6BMWbwsxDG8Ri3bEqfjiUzdzzM/eeALpn5mTnmaR/XQG6RIEZoxBcpMSHH1toLfTF3dwcVxvNJrY5SpOGfVnq6j6fiAws0spsz8gswgyujVDBoi011liPXmU/3aEiVsc9+b3yBZLr2BeFoDLsWOVDHme9MASyiwu4xvL+SEk1XC023nITXoPHsv1LMf/hh2CBlPTBC1U1YHQttHvh4o63lDXpHGILT0BoHKP2dvFtb8/J3n1f7t8T/7Pj7Bj9rte0v9k+Nvb5oIyNMYphwr3Y/xejX1IUczEe4L/XjH+xFup5/AvM14hKLNSiLoXz/BdYGfd+Z6YfuAAAAABJRU5ErkJggg==;" parent="1" vertex="1">
          <mxGeometry x="-55.8" y="890" width="69.61" height="65" as="geometry" />
        </mxCell>
        <mxCell id="tOUqUhgswsMUb7JnzcR3-1" value="Client" style="shape=umlLifeline;perimeter=lifelinePerimeter;container=1;collapsible=0;recursiveResize=0;rounded=0;shadow=0;strokeWidth=1;" parent="1" vertex="1">
          <mxGeometry x="261" y="1420" width="100" height="340" as="geometry" />
        </mxCell>
        <mxCell id="tOUqUhgswsMUb7JnzcR3-2" value="" style="points=[];perimeter=orthogonalPerimeter;rounded=0;shadow=0;strokeWidth=1;" parent="tOUqUhgswsMUb7JnzcR3-1" vertex="1">
          <mxGeometry x="45" y="70" width="10" height="240" as="geometry" />
        </mxCell>
        <mxCell id="tOUqUhgswsMUb7JnzcR3-5" value="Auth Server" style="shape=umlLifeline;perimeter=lifelinePerimeter;container=1;collapsible=0;recursiveResize=0;rounded=0;shadow=0;strokeWidth=1;" parent="1" vertex="1">
          <mxGeometry x="441" y="1420" width="100" height="420" as="geometry" />
        </mxCell>
        <mxCell id="tOUqUhgswsMUb7JnzcR3-6" value="" style="points=[];perimeter=orthogonalPerimeter;rounded=0;shadow=0;strokeWidth=1;" parent="tOUqUhgswsMUb7JnzcR3-5" vertex="1">
          <mxGeometry x="45" y="80" width="10" height="320" as="geometry" />
        </mxCell>
        <mxCell id="tOUqUhgswsMUb7JnzcR3-19" value="Verify" style="endArrow=classic;html=1;rounded=0;exitX=-0.167;exitY=0.293;exitDx=0;exitDy=0;exitPerimeter=0;" parent="tOUqUhgswsMUb7JnzcR3-5" source="tOUqUhgswsMUb7JnzcR3-6" edge="1">
          <mxGeometry x="-0.0651" y="-20" width="50" height="50" relative="1" as="geometry">
            <mxPoint x="29" y="174" as="sourcePoint" />
            <mxPoint x="45" y="190" as="targetPoint" />
            <Array as="points">
              <mxPoint x="19" y="174" />
              <mxPoint x="19" y="190" />
            </Array>
            <mxPoint as="offset" />
          </mxGeometry>
        </mxCell>
        <mxCell id="tOUqUhgswsMUb7JnzcR3-23" value="callback" style="verticalAlign=bottom;endArrow=block;entryX=1;entryY=0.264;shadow=0;strokeWidth=1;entryDx=0;entryDy=0;entryPerimeter=0;dashed=1;" parent="tOUqUhgswsMUb7JnzcR3-5" edge="1">
          <mxGeometry relative="1" as="geometry">
            <mxPoint x="45" y="228" as="sourcePoint" />
            <mxPoint x="-125" y="228" as="targetPoint" />
          </mxGeometry>
        </mxCell>
        <mxCell id="dHmSMfp0UCBvBHTw-1_v-3" value="aliveCheckDate 키와&lt;br&gt;현재 날짜 비교" style="endArrow=classic;html=1;rounded=0;labelBackgroundColor=none;entryX=-0.024;entryY=0.407;entryDx=0;entryDy=0;entryPerimeter=0;" parent="tOUqUhgswsMUb7JnzcR3-5" target="dHmSMfp0UCBvBHTw-1_v-5" edge="1">
          <mxGeometry x="0.2738" y="-50" width="50" height="50" relative="1" as="geometry">
            <mxPoint x="39" y="260" as="sourcePoint" />
            <mxPoint x="45" y="276.24" as="targetPoint" />
            <Array as="points">
              <mxPoint x="19" y="260.24" />
              <mxPoint x="19" y="276.24" />
            </Array>
            <mxPoint x="-49" y="-50" as="offset" />
          </mxGeometry>
        </mxCell>
        <mxCell id="dHmSMfp0UCBvBHTw-1_v-5" value="" style="points=[];perimeter=orthogonalPerimeter;rounded=0;shadow=0;strokeWidth=1;" parent="tOUqUhgswsMUb7JnzcR3-5" vertex="1">
          <mxGeometry x="40" y="240" width="20" height="90" as="geometry" />
        </mxCell>
        <mxCell id="tOUqUhgswsMUb7JnzcR3-8" value="/validation" style="verticalAlign=bottom;endArrow=block;entryX=0;entryY=0;shadow=0;strokeWidth=1;" parent="1" source="tOUqUhgswsMUb7JnzcR3-2" target="tOUqUhgswsMUb7JnzcR3-6" edge="1">
          <mxGeometry relative="1" as="geometry">
            <mxPoint x="416" y="1500" as="sourcePoint" />
          </mxGeometry>
        </mxCell>
        <mxCell id="tOUqUhgswsMUb7JnzcR3-9" value="callback" style="verticalAlign=bottom;endArrow=block;entryX=1;entryY=0.264;shadow=0;strokeWidth=1;entryDx=0;entryDy=0;entryPerimeter=0;dashed=1;" parent="1" edge="1">
          <mxGeometry relative="1" as="geometry">
            <mxPoint x="486" y="1545.36" as="sourcePoint" />
            <mxPoint x="316" y="1545.36" as="targetPoint" />
          </mxGeometry>
        </mxCell>
        <mxCell id="tOUqUhgswsMUb7JnzcR3-11" value="Redis" style="shape=umlLifeline;perimeter=lifelinePerimeter;container=1;collapsible=0;recursiveResize=0;rounded=0;shadow=0;strokeWidth=1;" parent="1" vertex="1">
          <mxGeometry x="621" y="1420" width="100" height="420" as="geometry" />
        </mxCell>
        <mxCell id="tOUqUhgswsMUb7JnzcR3-12" value="" style="points=[];perimeter=orthogonalPerimeter;rounded=0;shadow=0;strokeWidth=1;" parent="tOUqUhgswsMUb7JnzcR3-11" vertex="1">
          <mxGeometry x="45" y="80" width="10" height="320" as="geometry" />
        </mxCell>
        <mxCell id="tOUqUhgswsMUb7JnzcR3-15" value="SET" style="verticalAlign=bottom;endArrow=block;entryX=0;entryY=0;shadow=0;strokeWidth=1;" parent="tOUqUhgswsMUb7JnzcR3-11" edge="1">
          <mxGeometry relative="1" as="geometry">
            <mxPoint x="-125" y="100" as="sourcePoint" />
            <mxPoint x="44.99999999999999" y="100" as="targetPoint" />
          </mxGeometry>
        </mxCell>
        <mxCell id="Yyv4Cj9F_jj2TgPqLO0V-2" value="SAVE sdk-auth &#xa;type: auth" style="verticalAlign=bottom;endArrow=block;shadow=0;strokeWidth=1;entryX=-0.02;entryY=0.735;entryDx=0;entryDy=0;entryPerimeter=0;" parent="tOUqUhgswsMUb7JnzcR3-11" edge="1">
          <mxGeometry x="0.406" relative="1" as="geometry">
            <mxPoint x="-123.40000000000043" y="220" as="sourcePoint" />
            <mxPoint x="221.39999999999975" y="220.4000000000001" as="targetPoint" />
            <mxPoint as="offset" />
          </mxGeometry>
        </mxCell>
        <mxCell id="dHmSMfp0UCBvBHTw-1_v-10" value="Expire Hook" style="verticalAlign=bottom;endArrow=block;shadow=0;strokeWidth=1;" parent="tOUqUhgswsMUb7JnzcR3-11" edge="1">
          <mxGeometry x="-0.0588" relative="1" as="geometry">
            <mxPoint x="45" y="360" as="sourcePoint" />
            <mxPoint x="-125" y="360" as="targetPoint" />
            <mxPoint as="offset" />
          </mxGeometry>
        </mxCell>
        <mxCell id="dHmSMfp0UCBvBHTw-1_v-12" value="&#xa;SAVE sdk-auth-expire &#xa;type: expire" style="verticalAlign=bottom;endArrow=block;shadow=0;strokeWidth=1;entryX=-0.067;entryY=0.749;entryDx=0;entryDy=0;entryPerimeter=0;" parent="tOUqUhgswsMUb7JnzcR3-11" edge="1">
          <mxGeometry x="0.4521" relative="1" as="geometry">
            <mxPoint x="-122.17000000000002" y="380.03999999999996" as="sourcePoint" />
            <mxPoint x="222.15999999999997" y="380" as="targetPoint" />
            <mxPoint as="offset" />
          </mxGeometry>
        </mxCell>
        <mxCell id="tOUqUhgswsMUb7JnzcR3-13" value="MongoDB" style="shape=umlLifeline;perimeter=lifelinePerimeter;container=1;collapsible=0;recursiveResize=0;rounded=0;shadow=0;strokeWidth=1;" parent="1" vertex="1">
          <mxGeometry x="800" y="1420" width="100" height="420" as="geometry" />
        </mxCell>
        <mxCell id="tOUqUhgswsMUb7JnzcR3-14" value="" style="points=[];perimeter=orthogonalPerimeter;rounded=0;shadow=0;strokeWidth=1;" parent="tOUqUhgswsMUb7JnzcR3-13" vertex="1">
          <mxGeometry x="45" y="270" width="10" height="40" as="geometry" />
        </mxCell>
        <mxCell id="Yyv4Cj9F_jj2TgPqLO0V-1" value="" style="points=[];perimeter=orthogonalPerimeter;rounded=0;shadow=0;strokeWidth=1;" parent="tOUqUhgswsMUb7JnzcR3-13" vertex="1">
          <mxGeometry x="45" y="200" width="10" height="40" as="geometry" />
        </mxCell>
        <mxCell id="dHmSMfp0UCBvBHTw-1_v-11" value="" style="points=[];perimeter=orthogonalPerimeter;rounded=0;shadow=0;strokeWidth=1;" parent="tOUqUhgswsMUb7JnzcR3-13" vertex="1">
          <mxGeometry x="45" y="360" width="10" height="40" as="geometry" />
        </mxCell>
        <mxCell id="tOUqUhgswsMUb7JnzcR3-16" value="/session" style="verticalAlign=bottom;endArrow=block;entryX=0;entryY=0;shadow=0;strokeWidth=1;" parent="1" edge="1">
          <mxGeometry relative="1" as="geometry">
            <mxPoint x="317" y="1569.8" as="sourcePoint" />
            <mxPoint x="487" y="1569.8" as="targetPoint" />
          </mxGeometry>
        </mxCell>
        <mxCell id="tOUqUhgswsMUb7JnzcR3-18" value="SET" style="verticalAlign=bottom;endArrow=block;entryX=0;entryY=0;shadow=0;strokeWidth=1;" parent="1" edge="1">
          <mxGeometry relative="1" as="geometry">
            <mxPoint x="497" y="1620" as="sourcePoint" />
            <mxPoint x="667" y="1620" as="targetPoint" />
          </mxGeometry>
        </mxCell>
        <mxCell id="tOUqUhgswsMUb7JnzcR3-20" value="/alive (1min)" style="verticalAlign=bottom;endArrow=block;shadow=0;strokeWidth=1;" parent="1" edge="1">
          <mxGeometry relative="1" as="geometry">
            <mxPoint x="317" y="1667" as="sourcePoint" />
            <mxPoint x="480" y="1667" as="targetPoint" />
          </mxGeometry>
        </mxCell>
        <mxCell id="tOUqUhgswsMUb7JnzcR3-22" value="Expire Date(TTL) x분&lt;br&gt;서버와 상호작용시 작동 재설정" style="text;html=1;strokeColor=none;fillColor=none;align=center;verticalAlign=middle;whiteSpace=wrap;rounded=0;labelBorderColor=none;" parent="1" vertex="1">
          <mxGeometry x="554.25" y="1380" width="233.5" height="30" as="geometry" />
        </mxCell>
        <mxCell id="dHmSMfp0UCBvBHTw-1_v-6" value="true" style="verticalAlign=bottom;endArrow=block;shadow=0;strokeWidth=1;entryX=-0.119;entryY=0.626;entryDx=0;entryDy=0;entryPerimeter=0;" parent="1" target="tOUqUhgswsMUb7JnzcR3-12" edge="1">
          <mxGeometry x="-1" y="10" relative="1" as="geometry">
            <mxPoint x="500" y="1700" as="sourcePoint" />
            <mxPoint x="660" y="1700" as="targetPoint" />
            <mxPoint as="offset" />
          </mxGeometry>
        </mxCell>
        <mxCell id="dHmSMfp0UCBvBHTw-1_v-7" value="&#xa;SAVE sdk-auth &#xa;type: alive" style="verticalAlign=bottom;endArrow=block;shadow=0;strokeWidth=1;entryX=-0.067;entryY=0.749;entryDx=0;entryDy=0;entryPerimeter=0;" parent="1" target="tOUqUhgswsMUb7JnzcR3-14" edge="1">
          <mxGeometry x="0.4521" relative="1" as="geometry">
            <mxPoint x="500" y="1720" as="sourcePoint" />
            <mxPoint x="666" y="1720" as="targetPoint" />
            <mxPoint as="offset" />
          </mxGeometry>
        </mxCell>
        <mxCell id="dHmSMfp0UCBvBHTw-1_v-8" value="false" style="verticalAlign=bottom;endArrow=block;shadow=0;strokeWidth=1;" parent="1" edge="1">
          <mxGeometry x="-1" relative="1" as="geometry">
            <mxPoint x="500" y="1720" as="sourcePoint" />
            <mxPoint x="670" y="1720" as="targetPoint" />
            <mxPoint as="offset" />
          </mxGeometry>
        </mxCell>
        <mxCell id="dHmSMfp0UCBvBHTw-1_v-13" value="GET" style="verticalAlign=bottom;endArrow=block;entryX=0;entryY=0;shadow=0;strokeWidth=1;" parent="1" edge="1">
          <mxGeometry relative="1" as="geometry">
            <mxPoint x="496" y="1581" as="sourcePoint" />
            <mxPoint x="666" y="1581" as="targetPoint" />
          </mxGeometry>
        </mxCell>
        <mxCell id="dHmSMfp0UCBvBHTw-1_v-21" value="DAU 확인용" style="text;html=1;strokeColor=default;fillColor=default;align=center;verticalAlign=middle;whiteSpace=wrap;rounded=0;" parent="1" vertex="1">
          <mxGeometry x="870" y="1660" width="80" height="30" as="geometry" />
        </mxCell>
        <mxCell id="dHmSMfp0UCBvBHTw-1_v-24" value="SET&lt;br&gt;aliveCheckDate" style="text;html=1;strokeColor=none;fillColor=default;align=center;verticalAlign=middle;whiteSpace=wrap;rounded=0;" parent="1" vertex="1">
          <mxGeometry x="550" y="1710" width="60" height="30" as="geometry" />
        </mxCell>
        <mxCell id="dHmSMfp0UCBvBHTw-1_v-25" value="SET" style="verticalAlign=bottom;endArrow=block;entryX=0;entryY=0;shadow=0;strokeWidth=1;" parent="1" edge="1">
          <mxGeometry relative="1" as="geometry">
            <mxPoint x="500" y="1700" as="sourcePoint" />
            <mxPoint x="665" y="1700" as="targetPoint" />
          </mxGeometry>
        </mxCell>
        <mxCell id="Tjb0N3-KQUtV-mj4H4BR-1" value="SDK" style="shape=umlLifeline;perimeter=lifelinePerimeter;container=1;collapsible=0;recursiveResize=0;rounded=0;shadow=0;strokeWidth=1;" parent="1" vertex="1">
          <mxGeometry x="260" y="2160" width="100" height="340" as="geometry" />
        </mxCell>
        <mxCell id="Tjb0N3-KQUtV-mj4H4BR-2" value="" style="points=[];perimeter=orthogonalPerimeter;rounded=0;shadow=0;strokeWidth=1;" parent="Tjb0N3-KQUtV-mj4H4BR-1" vertex="1">
          <mxGeometry x="45" y="70" width="10" height="240" as="geometry" />
        </mxCell>
        <mxCell id="Tjb0N3-KQUtV-mj4H4BR-3" value="Server" style="shape=umlLifeline;perimeter=lifelinePerimeter;container=1;collapsible=0;recursiveResize=0;rounded=0;shadow=0;strokeWidth=1;" parent="1" vertex="1">
          <mxGeometry x="520" y="2160" width="100" height="340" as="geometry" />
        </mxCell>
        <mxCell id="Tjb0N3-KQUtV-mj4H4BR-4" value="" style="points=[];perimeter=orthogonalPerimeter;rounded=0;shadow=0;strokeWidth=1;" parent="Tjb0N3-KQUtV-mj4H4BR-3" vertex="1">
          <mxGeometry x="45" y="70" width="10" height="240" as="geometry" />
        </mxCell>
        <mxCell id="Tjb0N3-KQUtV-mj4H4BR-5" value="DB" style="shape=umlLifeline;perimeter=lifelinePerimeter;container=1;collapsible=0;recursiveResize=0;rounded=0;shadow=0;strokeWidth=1;" parent="1" vertex="1">
          <mxGeometry x="779" y="2160" width="100" height="340" as="geometry" />
        </mxCell>
        <mxCell id="Tjb0N3-KQUtV-mj4H4BR-6" value="" style="points=[];perimeter=orthogonalPerimeter;rounded=0;shadow=0;strokeWidth=1;" parent="Tjb0N3-KQUtV-mj4H4BR-5" vertex="1">
          <mxGeometry x="45" y="70" width="10" height="240" as="geometry" />
        </mxCell>
        <mxCell id="Tjb0N3-KQUtV-mj4H4BR-7" value="/preferences?type=device,alive" style="verticalAlign=bottom;endArrow=block;entryX=0.107;entryY=0.092;shadow=0;strokeWidth=1;entryDx=0;entryDy=0;entryPerimeter=0;" parent="1" edge="1">
          <mxGeometry relative="1" as="geometry">
            <mxPoint x="316" y="2251" as="sourcePoint" />
            <mxPoint x="566.0699999999997" y="2251.08" as="targetPoint" />
          </mxGeometry>
        </mxCell>
        <mxCell id="Tjb0N3-KQUtV-mj4H4BR-8" value="SELECT device,alive" style="verticalAlign=bottom;endArrow=block;entryX=0.107;entryY=0.092;shadow=0;strokeWidth=1;entryDx=0;entryDy=0;entryPerimeter=0;" parent="1" edge="1">
          <mxGeometry relative="1" as="geometry">
            <mxPoint x="575" y="2268" as="sourcePoint" />
            <mxPoint x="825.0699999999997" y="2268.08" as="targetPoint" />
          </mxGeometry>
        </mxCell>
        <mxCell id="Tjb0N3-KQUtV-mj4H4BR-9" value="callback" style="verticalAlign=bottom;endArrow=block;entryX=1.21;entryY=0.374;shadow=0;strokeWidth=1;entryDx=0;entryDy=0;entryPerimeter=0;dashed=1;exitX=-0.069;exitY=0.371;exitDx=0;exitDy=0;exitPerimeter=0;" parent="1" edge="1">
          <mxGeometry relative="1" as="geometry">
            <mxPoint x="823.31" y="2293.04" as="sourcePoint" />
            <mxPoint x="577.0999999999999" y="2293.76" as="targetPoint" />
          </mxGeometry>
        </mxCell>
        <mxCell id="Tjb0N3-KQUtV-mj4H4BR-10" value="callback [ ]" style="verticalAlign=bottom;endArrow=block;entryX=1.21;entryY=0.374;shadow=0;strokeWidth=1;entryDx=0;entryDy=0;entryPerimeter=0;dashed=1;exitX=-0.069;exitY=0.371;exitDx=0;exitDy=0;exitPerimeter=0;" parent="1" edge="1">
          <mxGeometry relative="1" as="geometry">
            <mxPoint x="562.2099999999999" y="2305.0400000000004" as="sourcePoint" />
            <mxPoint x="315.9999999999999" y="2305.76" as="targetPoint" />
          </mxGeometry>
        </mxCell>
        <mxCell id="Tjb0N3-KQUtV-mj4H4BR-11" value="쿼리스트링 type의 value는 다중으로 받을수있도록&lt;br&gt;" style="text;html=1;strokeColor=none;fillColor=none;align=center;verticalAlign=middle;whiteSpace=wrap;rounded=0;fontColor=#666666;" parent="1" vertex="1">
          <mxGeometry x="379" y="2190" width="130" height="50" as="geometry" />
        </mxCell>
        <mxCell id="Tjb0N3-KQUtV-mj4H4BR-13" value="manage.seeso.io" style="shape=umlLifeline;perimeter=lifelinePerimeter;container=1;collapsible=0;recursiveResize=0;rounded=0;shadow=0;strokeWidth=1;" parent="1" vertex="1">
          <mxGeometry x="260.5" y="2520" width="100" height="340" as="geometry" />
        </mxCell>
        <mxCell id="Tjb0N3-KQUtV-mj4H4BR-14" value="" style="points=[];perimeter=orthogonalPerimeter;rounded=0;shadow=0;strokeWidth=1;" parent="Tjb0N3-KQUtV-mj4H4BR-13" vertex="1">
          <mxGeometry x="45" y="70" width="10" height="240" as="geometry" />
        </mxCell>
        <mxCell id="Tjb0N3-KQUtV-mj4H4BR-15" value="Server" style="shape=umlLifeline;perimeter=lifelinePerimeter;container=1;collapsible=0;recursiveResize=0;rounded=0;shadow=0;strokeWidth=1;" parent="1" vertex="1">
          <mxGeometry x="520.5" y="2520" width="100" height="340" as="geometry" />
        </mxCell>
        <mxCell id="Tjb0N3-KQUtV-mj4H4BR-16" value="" style="points=[];perimeter=orthogonalPerimeter;rounded=0;shadow=0;strokeWidth=1;" parent="Tjb0N3-KQUtV-mj4H4BR-15" vertex="1">
          <mxGeometry x="45" y="70" width="10" height="240" as="geometry" />
        </mxCell>
        <mxCell id="Tjb0N3-KQUtV-mj4H4BR-23" value="/register/device" style="verticalAlign=bottom;endArrow=block;entryX=0.107;entryY=0.092;shadow=0;strokeWidth=1;entryDx=0;entryDy=0;entryPerimeter=0;" parent="Tjb0N3-KQUtV-mj4H4BR-15" edge="1">
          <mxGeometry relative="1" as="geometry">
            <mxPoint x="-204.5" y="100" as="sourcePoint" />
            <mxPoint x="45.56999999999971" y="100.07999999999993" as="targetPoint" />
          </mxGeometry>
        </mxCell>
        <mxCell id="Tjb0N3-KQUtV-mj4H4BR-17" value="DB" style="shape=umlLifeline;perimeter=lifelinePerimeter;container=1;collapsible=0;recursiveResize=0;rounded=0;shadow=0;strokeWidth=1;" parent="1" vertex="1">
          <mxGeometry x="779.5" y="2520" width="100" height="340" as="geometry" />
        </mxCell>
        <mxCell id="Tjb0N3-KQUtV-mj4H4BR-18" value="" style="points=[];perimeter=orthogonalPerimeter;rounded=0;shadow=0;strokeWidth=1;" parent="Tjb0N3-KQUtV-mj4H4BR-17" vertex="1">
          <mxGeometry x="45" y="70" width="10" height="240" as="geometry" />
        </mxCell>
        <mxCell id="Tjb0N3-KQUtV-mj4H4BR-21" value="dispatch" style="verticalAlign=bottom;startArrow=oval;endArrow=block;startSize=8;shadow=0;strokeWidth=1;" parent="1" edge="1">
          <mxGeometry relative="1" as="geometry">
            <mxPoint x="245" y="2605" as="sourcePoint" />
            <mxPoint x="305" y="2605" as="targetPoint" />
          </mxGeometry>
        </mxCell>
        <mxCell id="Tjb0N3-KQUtV-mj4H4BR-24" value="INSERT device" style="verticalAlign=bottom;endArrow=block;entryX=0.107;entryY=0.092;shadow=0;strokeWidth=1;entryDx=0;entryDy=0;entryPerimeter=0;" parent="1" edge="1">
          <mxGeometry relative="1" as="geometry">
            <mxPoint x="576" y="2640" as="sourcePoint" />
            <mxPoint x="826.0699999999997" y="2640.0800000000004" as="targetPoint" />
          </mxGeometry>
        </mxCell>
        <mxCell id="Tjb0N3-KQUtV-mj4H4BR-26" value="callback" style="verticalAlign=bottom;endArrow=block;entryX=1.21;entryY=0.374;shadow=0;strokeWidth=1;entryDx=0;entryDy=0;entryPerimeter=0;dashed=1;exitX=-0.069;exitY=0.371;exitDx=0;exitDy=0;exitPerimeter=0;" parent="1" edge="1">
          <mxGeometry relative="1" as="geometry">
            <mxPoint x="822.2099999999999" y="2664.0000000000005" as="sourcePoint" />
            <mxPoint x="576.0000000000003" y="2664.7200000000003" as="targetPoint" />
          </mxGeometry>
        </mxCell>
        <mxCell id="Tjb0N3-KQUtV-mj4H4BR-27" value="callback" style="verticalAlign=bottom;endArrow=block;entryX=1.21;entryY=0.374;shadow=0;strokeWidth=1;entryDx=0;entryDy=0;entryPerimeter=0;dashed=1;exitX=-0.069;exitY=0.371;exitDx=0;exitDy=0;exitPerimeter=0;" parent="1" edge="1">
          <mxGeometry relative="1" as="geometry">
            <mxPoint x="564.1" y="2680.640000000001" as="sourcePoint" />
            <mxPoint x="317.89000000000044" y="2681.3599999999997" as="targetPoint" />
          </mxGeometry>
        </mxCell>
        <mxCell id="Tjb0N3-KQUtV-mj4H4BR-28" value="유저가 디바이스 등록하는 기능" style="text;html=1;strokeColor=none;fillColor=none;align=center;verticalAlign=middle;whiteSpace=wrap;rounded=0;fontColor=#666666;" parent="1" vertex="1">
          <mxGeometry x="399" y="2520" width="90" height="50" as="geometry" />
        </mxCell>
        <mxCell id="f2nWW39W2drjSOSYyCqq-1" value="값이 없으면 default 값 전달" style="text;html=1;strokeColor=none;fillColor=none;align=center;verticalAlign=middle;whiteSpace=wrap;rounded=0;fontColor=#666666;" parent="1" vertex="1">
          <mxGeometry x="410" y="2290" width="140" height="50" as="geometry" />
        </mxCell>
        <mxCell id="XmWi23d1Qd07ICbDgrR1-16" value="" style="edgeStyle=orthogonalEdgeStyle;rounded=0;orthogonalLoop=1;jettySize=auto;html=1;" edge="1" parent="1" source="XmWi23d1Qd07ICbDgrR1-1" target="XmWi23d1Qd07ICbDgrR1-9">
          <mxGeometry relative="1" as="geometry" />
        </mxCell>
        <mxCell id="XmWi23d1Qd07ICbDgrR1-23" value="" style="edgeStyle=orthogonalEdgeStyle;rounded=0;orthogonalLoop=1;jettySize=auto;html=1;entryX=0.25;entryY=0;entryDx=0;entryDy=0;startArrow=classic;startFill=1;" edge="1" parent="1" source="XmWi23d1Qd07ICbDgrR1-1" target="XmWi23d1Qd07ICbDgrR1-20">
          <mxGeometry relative="1" as="geometry" />
        </mxCell>
        <mxCell id="XmWi23d1Qd07ICbDgrR1-1" value="admin" style="outlineConnect=0;dashed=0;verticalLabelPosition=bottom;verticalAlign=top;align=center;html=1;shape=mxgraph.aws3.elastic_beanstalk;fillColor=#F58534;gradientColor=none;" vertex="1" parent="1">
          <mxGeometry x="1750" y="227" width="67.5" height="93" as="geometry" />
        </mxCell>
        <mxCell id="XmWi23d1Qd07ICbDgrR1-15" value="" style="edgeStyle=orthogonalEdgeStyle;rounded=0;orthogonalLoop=1;jettySize=auto;html=1;" edge="1" parent="1" source="XmWi23d1Qd07ICbDgrR1-2" target="XmWi23d1Qd07ICbDgrR1-8">
          <mxGeometry relative="1" as="geometry" />
        </mxCell>
        <mxCell id="XmWi23d1Qd07ICbDgrR1-27" style="edgeStyle=orthogonalEdgeStyle;rounded=0;orthogonalLoop=1;jettySize=auto;html=1;exitX=0.5;exitY=0;exitDx=0;exitDy=0;" edge="1" parent="1" source="XmWi23d1Qd07ICbDgrR1-20" target="XmWi23d1Qd07ICbDgrR1-2">
          <mxGeometry relative="1" as="geometry" />
        </mxCell>
        <mxCell id="XmWi23d1Qd07ICbDgrR1-2" value="auth" style="outlineConnect=0;dashed=0;verticalLabelPosition=bottom;verticalAlign=top;align=center;html=1;shape=mxgraph.aws3.elastic_beanstalk;fillColor=#F58534;gradientColor=none;" vertex="1" parent="1">
          <mxGeometry x="1929.75" y="227" width="67.5" height="93" as="geometry" />
        </mxCell>
        <mxCell id="XmWi23d1Qd07ICbDgrR1-14" value="" style="edgeStyle=orthogonalEdgeStyle;rounded=0;orthogonalLoop=1;jettySize=auto;html=1;" edge="1" parent="1" source="XmWi23d1Qd07ICbDgrR1-3" target="XmWi23d1Qd07ICbDgrR1-13">
          <mxGeometry relative="1" as="geometry" />
        </mxCell>
        <mxCell id="XmWi23d1Qd07ICbDgrR1-25" value="" style="edgeStyle=orthogonalEdgeStyle;rounded=0;orthogonalLoop=1;jettySize=auto;html=1;entryX=0.75;entryY=0;entryDx=0;entryDy=0;startArrow=classic;startFill=1;" edge="1" parent="1" source="XmWi23d1Qd07ICbDgrR1-3" target="XmWi23d1Qd07ICbDgrR1-20">
          <mxGeometry relative="1" as="geometry" />
        </mxCell>
        <mxCell id="XmWi23d1Qd07ICbDgrR1-33" style="edgeStyle=orthogonalEdgeStyle;rounded=0;orthogonalLoop=1;jettySize=auto;html=1;" edge="1" parent="1" source="XmWi23d1Qd07ICbDgrR1-3" target="XmWi23d1Qd07ICbDgrR1-8">
          <mxGeometry relative="1" as="geometry">
            <Array as="points">
              <mxPoint x="2100" y="273" />
              <mxPoint x="2100" y="210" />
              <mxPoint x="1964" y="210" />
            </Array>
          </mxGeometry>
        </mxCell>
        <mxCell id="XmWi23d1Qd07ICbDgrR1-3" value="manage" style="outlineConnect=0;dashed=0;verticalLabelPosition=bottom;verticalAlign=top;align=center;html=1;shape=mxgraph.aws3.elastic_beanstalk;fillColor=#F58534;gradientColor=none;" vertex="1" parent="1">
          <mxGeometry x="2130" y="227" width="67.5" height="93" as="geometry" />
        </mxCell>
        <mxCell id="XmWi23d1Qd07ICbDgrR1-17" value="" style="edgeStyle=orthogonalEdgeStyle;rounded=0;orthogonalLoop=1;jettySize=auto;html=1;" edge="1" parent="1" source="XmWi23d1Qd07ICbDgrR1-5" target="XmWi23d1Qd07ICbDgrR1-10">
          <mxGeometry relative="1" as="geometry" />
        </mxCell>
        <mxCell id="XmWi23d1Qd07ICbDgrR1-29" value="" style="edgeStyle=orthogonalEdgeStyle;rounded=0;orthogonalLoop=1;jettySize=auto;html=1;" edge="1" parent="1" source="XmWi23d1Qd07ICbDgrR1-5" target="XmWi23d1Qd07ICbDgrR1-28">
          <mxGeometry relative="1" as="geometry" />
        </mxCell>
        <mxCell id="XmWi23d1Qd07ICbDgrR1-5" value="&lt;br&gt;setting" style="outlineConnect=0;dashed=0;verticalLabelPosition=bottom;verticalAlign=top;align=center;html=1;shape=mxgraph.aws3.lambda_function;fillColor=#F58534;gradientColor=none;" vertex="1" parent="1">
          <mxGeometry x="1580" y="243" width="69" height="72" as="geometry" />
        </mxCell>
        <mxCell id="XmWi23d1Qd07ICbDgrR1-31" value="" style="edgeStyle=orthogonalEdgeStyle;rounded=0;orthogonalLoop=1;jettySize=auto;html=1;" edge="1" parent="1" source="XmWi23d1Qd07ICbDgrR1-8" target="XmWi23d1Qd07ICbDgrR1-30">
          <mxGeometry relative="1" as="geometry" />
        </mxCell>
        <mxCell id="XmWi23d1Qd07ICbDgrR1-8" value="MongoDB" style="html=1;verticalLabelPosition=bottom;align=center;labelBackgroundColor=#ffffff;verticalAlign=top;strokeWidth=2;strokeColor=#0080F0;shadow=0;dashed=0;shape=mxgraph.ios7.icons.data;fillColor=none;" vertex="1" parent="1">
          <mxGeometry x="1928.75" y="70.89999999999999" width="70" height="79.1" as="geometry" />
        </mxCell>
        <mxCell id="XmWi23d1Qd07ICbDgrR1-9" value="RDS" style="outlineConnect=0;dashed=0;verticalLabelPosition=bottom;verticalAlign=top;align=center;html=1;shape=mxgraph.aws3.rds;fillColor=#2E73B8;gradientColor=none;strokeColor=#FF8000;" vertex="1" parent="1">
          <mxGeometry x="1749" y="70.89999999999999" width="72" height="81" as="geometry" />
        </mxCell>
        <mxCell id="XmWi23d1Qd07ICbDgrR1-10" value="aurora" style="outlineConnect=0;dashed=0;verticalLabelPosition=bottom;verticalAlign=top;align=center;html=1;shape=mxgraph.aws3.rds;fillColor=#2E73B8;gradientColor=none;strokeColor=#FF8000;" vertex="1" parent="1">
          <mxGeometry x="1578" y="68.99999999999999" width="72" height="81" as="geometry" />
        </mxCell>
        <mxCell id="XmWi23d1Qd07ICbDgrR1-13" value="opensearch&lt;br&gt;" style="outlineConnect=0;dashed=0;verticalLabelPosition=bottom;verticalAlign=top;align=center;html=1;shape=mxgraph.aws3.elasticsearch_service;fillColor=#F58534;gradientColor=none;" vertex="1" parent="1">
          <mxGeometry x="2130" y="69.9" width="67.5" height="81" as="geometry" />
        </mxCell>
        <mxCell id="XmWi23d1Qd07ICbDgrR1-20" value="" style="whiteSpace=wrap;html=1;verticalAlign=top;fillColor=#5A30B5;strokeColor=#ffffff;fontColor=#232F3E;sketch=0;gradientColor=#945DF2;gradientDirection=north;dashed=0;fontStyle=0;" vertex="1" parent="1">
          <mxGeometry x="1741" y="394.5" width="444" height="126.5" as="geometry" />
        </mxCell>
        <mxCell id="XmWi23d1Qd07ICbDgrR1-18" value="" style="sketch=0;points=[[0,0,0],[0.25,0,0],[0.5,0,0],[0.75,0,0],[1,0,0],[0,1,0],[0.25,1,0],[0.5,1,0],[0.75,1,0],[1,1,0],[0,0.25,0],[0,0.5,0],[0,0.75,0],[1,0.25,0],[1,0.5,0],[1,0.75,0]];outlineConnect=0;fontColor=#232F3E;gradientColor=#945DF2;gradientDirection=north;fillColor=#5A30B5;strokeColor=#ffffff;dashed=0;verticalLabelPosition=bottom;verticalAlign=top;align=center;html=1;fontSize=12;fontStyle=0;aspect=fixed;shape=mxgraph.aws4.resourceIcon;resIcon=mxgraph.aws4.api_gateway;" vertex="1" parent="1">
          <mxGeometry x="1925.75" y="413" width="78" height="78" as="geometry" />
        </mxCell>
        <mxCell id="XmWi23d1Qd07ICbDgrR1-28" value="" style="sketch=0;points=[[0,0,0],[0.25,0,0],[0.5,0,0],[0.75,0,0],[1,0,0],[0,1,0],[0.25,1,0],[0.5,1,0],[0.75,1,0],[1,1,0],[0,0.25,0],[0,0.5,0],[0,0.75,0],[1,0.25,0],[1,0.5,0],[1,0.75,0]];outlineConnect=0;fontColor=#232F3E;gradientColor=#945DF2;gradientDirection=north;fillColor=#5A30B5;strokeColor=#ffffff;dashed=0;verticalLabelPosition=bottom;verticalAlign=top;align=center;html=1;fontSize=12;fontStyle=0;aspect=fixed;shape=mxgraph.aws4.resourceIcon;resIcon=mxgraph.aws4.api_gateway;" vertex="1" parent="1">
          <mxGeometry x="1575" y="394.5" width="78" height="78" as="geometry" />
        </mxCell>
        <mxCell id="XmWi23d1Qd07ICbDgrR1-32" value="" style="edgeStyle=orthogonalEdgeStyle;rounded=0;orthogonalLoop=1;jettySize=auto;html=1;" edge="1" parent="1" source="XmWi23d1Qd07ICbDgrR1-30" target="XmWi23d1Qd07ICbDgrR1-13">
          <mxGeometry relative="1" as="geometry" />
        </mxCell>
        <mxCell id="XmWi23d1Qd07ICbDgrR1-30" value="monstache" style="outlineConnect=0;dashed=0;verticalLabelPosition=bottom;verticalAlign=top;align=center;html=1;shape=mxgraph.aws3.ec2;fillColor=#F58534;gradientColor=none;" vertex="1" parent="1">
          <mxGeometry x="2034" y="76" width="61" height="67.9" as="geometry" />
        </mxCell>
        <mxCell id="XmWi23d1Qd07ICbDgrR1-34" value="auth-call&lt;br&gt;user" style="text;html=1;strokeColor=none;fillColor=none;align=center;verticalAlign=middle;whiteSpace=wrap;rounded=0;" vertex="1" parent="1">
          <mxGeometry x="2035" y="30" width="60" height="30" as="geometry" />
        </mxCell>
        <mxCell id="XmWi23d1Qd07ICbDgrR1-37" value="device-info" style="text;html=1;strokeColor=none;fillColor=none;align=center;verticalAlign=middle;whiteSpace=wrap;rounded=0;" vertex="1" parent="1">
          <mxGeometry x="1580" y="30" width="76" height="30" as="geometry" />
        </mxCell>
        <mxCell id="XmWi23d1Qd07ICbDgrR1-39" value="email-rule&lt;br&gt;email-template" style="text;html=1;strokeColor=none;fillColor=none;align=center;verticalAlign=middle;whiteSpace=wrap;rounded=0;" vertex="1" parent="1">
          <mxGeometry x="1740" y="30" width="93" height="30" as="geometry" />
        </mxCell>
        <mxCell id="XmWi23d1Qd07ICbDgrR1-40" value="auth-call&lt;br&gt;user" style="text;html=1;strokeColor=none;fillColor=none;align=center;verticalAlign=middle;whiteSpace=wrap;rounded=0;" vertex="1" parent="1">
          <mxGeometry x="2133.75" y="30" width="60" height="30" as="geometry" />
        </mxCell>
        <mxCell id="XmWi23d1Qd07ICbDgrR1-41" value="auth-call&lt;br&gt;user&lt;br&gt;key[dev,prod]" style="text;html=1;strokeColor=none;fillColor=none;align=center;verticalAlign=middle;whiteSpace=wrap;rounded=0;" vertex="1" parent="1">
          <mxGeometry x="1933" y="20" width="60" height="30" as="geometry" />
        </mxCell>
        <mxCell id="XmWi23d1Qd07ICbDgrR1-42" value="auth-call" style="text;html=1;strokeColor=none;fillColor=none;align=center;verticalAlign=middle;whiteSpace=wrap;rounded=0;" vertex="1" parent="1">
          <mxGeometry x="2160" y="181.5" width="60" height="30" as="geometry" />
        </mxCell>
        <mxCell id="XmWi23d1Qd07ICbDgrR1-43" value="key &lt;br&gt;user" style="text;html=1;strokeColor=none;fillColor=none;align=center;verticalAlign=middle;whiteSpace=wrap;rounded=0;" vertex="1" parent="1">
          <mxGeometry x="2050" y="211.5" width="60" height="30" as="geometry" />
        </mxCell>
        <mxCell id="XmWi23d1Qd07ICbDgrR1-47" value="issue key *to auth*" style="text;html=1;strokeColor=none;fillColor=none;align=center;verticalAlign=middle;whiteSpace=wrap;rounded=0;" vertex="1" parent="1">
          <mxGeometry x="2180" y="340" width="60" height="30" as="geometry" />
        </mxCell>
        <mxCell id="XmWi23d1Qd07ICbDgrR1-48" value="send email&lt;br&gt;*to admin*" style="text;html=1;strokeColor=none;fillColor=none;align=center;verticalAlign=middle;whiteSpace=wrap;rounded=0;" vertex="1" parent="1">
          <mxGeometry x="2241" y="340" width="110" height="30" as="geometry" />
        </mxCell>
      </root>
    </mxGraphModel>
  </diagram>
</mxfile>
